<svg width="425" height="352" viewBox="0 0 425 352" fill="none" xmlns="http://www.w3.org/2000/svg">
<g clip-path="url(#clip0_170_604)">
<path d="M408.91 110.69L369.658 68.2242C353.392 50.6676 331.588 41 308.262 41C284.936 41 263.18 50.6676 246.921 68.2514L202.375 116.386L158.129 68.3803C144.452 53.4987 126.018 45.3043 106.286 45.2771C86.5074 45.2771 68.0941 53.424 54.3962 68.231L15.0896 110.697C-6.36092 133.875 -6.36092 170.189 15.0896 193.367L170.516 361.343L191.559 384.066C196.824 389.762 204.251 393 212.024 393C215.897 393 219.695 392.192 223.194 390.671C226.666 389.151 229.826 386.903 232.489 384.066L408.938 193.36C430.361 170.183 430.361 133.868 408.91 110.69ZM211.997 316.732L59.8931 152.293C59.8455 152.144 59.8455 151.913 59.8931 151.764L98.7173 109.78L99.0231 109.475C101.15 107.173 103.555 106.005 106.219 106.005C108.882 106.005 111.281 107.193 113.434 109.495L258.247 265.175C258.499 265.454 258.73 265.732 258.934 265.983L212.003 316.718L211.997 316.732ZM364.127 152.293L309.852 210.951L293.769 194.779L253.247 150.847L291.541 109.475C296.229 104.417 301.998 101.728 308.255 101.728C314.513 101.728 320.289 104.41 324.97 109.475C325.249 109.753 325.5 110.058 325.779 110.31L364.121 151.784C364.148 151.933 364.148 152.137 364.121 152.293H364.127Z" fill="white"/>
<g filter="url(#filter0_f_170_604)">
<rect x="-44.1012" y="231" width="512.202" height="164" fill="#022C5E"/>
</g>
</g>
<defs>
<filter id="filter0_f_170_604" x="-104.101" y="171" width="632.202" height="284" filterUnits="userSpaceOnUse" color-interpolation-filters="sRGB">
<feFlood flood-opacity="0" result="BackgroundImageFix"/>
<feBlend mode="normal" in="SourceGraphic" in2="BackgroundImageFix" result="shape"/>
<feGaussianBlur stdDeviation="30" result="effect1_foregroundBlur_170_604"/>
</filter>
<clipPath id="clip0_170_604">
<rect width="426" height="352" fill="white" transform="translate(-1)"/>
</clipPath>
</defs>
</svg>
