<svg width="621" height="293" viewBox="0 0 621 293" fill="none" xmlns="http://www.w3.org/2000/svg">
<g clip-path="url(#clip0_0_1)">
<path d="M283.398 6.44051L279.625 2.51633C278.062 0.893346 275.967 0 273.725 0C271.483 0 269.392 0.893346 267.829 2.51867L263.547 6.96669L259.294 2.53037C257.98 1.15527 256.208 0.397562 254.311 0.395224C252.41 0.395224 250.64 1.14825 249.324 2.51633L245.546 6.44051C243.484 8.58267 243.484 11.9386 245.546 14.0807L260.485 29.6043L262.507 31.7044C263.014 32.2306 263.727 32.5299 264.474 32.5299C264.847 32.5299 265.212 32.4551 265.548 32.3148C265.881 32.1745 266.186 31.9663 266.441 31.7044L283.401 14.0807C285.46 11.9386 285.46 8.58267 283.401 6.44051H283.398ZM264.472 25.4814L249.852 10.2852C249.847 10.2711 249.847 10.2501 249.852 10.2361L253.584 6.35632L253.613 6.32825C253.817 6.11544 254.048 6.00787 254.304 6.00787C254.56 6.00787 254.791 6.11778 254.998 6.33059L268.917 20.7177C268.941 20.7434 268.963 20.7691 268.983 20.7925L264.472 25.4814ZM279.095 10.2852L273.878 15.706L272.332 14.2117L268.437 10.1519L272.118 6.32825C272.568 5.86053 273.123 5.61264 273.725 5.61264C274.326 5.61264 274.881 5.86053 275.331 6.32825C275.358 6.35398 275.382 6.38204 275.409 6.40543L279.095 10.2384C279.095 10.2524 279.095 10.2711 279.095 10.2852Z" fill="white"/>
<path d="M287.354 7.25902C287.354 6.06867 287.354 4.87832 287.354 3.68797C287.354 3.41436 287.432 3.33718 287.705 3.33718C288.849 3.33718 289.993 3.3325 291.135 3.34887C291.641 3.35589 292.133 3.4658 292.568 3.74176C293.24 4.16972 293.51 4.80115 293.484 5.5799C293.467 6.12246 293.177 6.50832 292.79 6.84742C292.765 6.86847 292.741 6.88484 292.717 6.90589C292.6 7.00411 292.602 7.06257 292.736 7.13975C293.16 7.38062 293.488 7.71037 293.634 8.18276C293.873 8.95216 293.759 10.3015 292.641 10.8628C292.203 11.0826 291.736 11.1762 291.254 11.1808C290.044 11.1949 288.837 11.1879 287.627 11.1879C287.461 11.1879 287.361 11.092 287.352 10.9236C287.347 10.8043 287.352 10.6851 287.352 10.5658C287.352 9.46432 287.352 8.3605 287.352 7.25902H287.354ZM290.356 9.21642C290.553 9.21642 290.75 9.2211 290.947 9.21642C291.3 9.20707 291.565 8.85628 291.466 8.53823C291.378 8.25994 291.154 8.09156 290.862 8.08922C290.502 8.08922 290.144 8.08922 289.784 8.08922C289.591 8.08922 289.489 8.18744 289.487 8.37687C289.487 8.56162 289.487 8.74637 289.487 8.93112C289.487 9.11353 289.591 9.21409 289.776 9.21642C289.969 9.21642 290.163 9.21642 290.356 9.21642ZM290.265 5.30862C290.095 5.30862 289.925 5.30862 289.757 5.30862C289.599 5.31096 289.494 5.40918 289.489 5.56587C289.484 5.73191 289.484 5.89795 289.489 6.06165C289.494 6.20665 289.594 6.30954 289.74 6.31188C290.083 6.31656 290.426 6.32124 290.769 6.31188C291.032 6.30487 291.232 6.04996 291.22 5.76699C291.21 5.52845 290.984 5.31096 290.738 5.30862C290.58 5.30862 290.421 5.30862 290.263 5.30862H290.265Z" fill="white"/>
<path d="M302.349 7.252C302.349 6.50131 302.349 5.74828 302.349 4.99759C302.349 4.91573 302.369 4.85025 302.422 4.78711C303.408 3.57338 304.684 3.01211 306.234 3.24597C307.829 3.48685 308.936 4.41527 309.484 5.92367C310.355 8.33009 308.773 10.8534 306.332 11.2627C304.742 11.5293 303.432 10.9774 302.417 9.72858C302.369 9.66777 302.349 9.60697 302.349 9.52746C302.349 8.76741 302.349 8.0097 302.349 7.24966V7.252ZM305.66 9.28892C305.762 9.2936 305.881 9.27956 305.998 9.25384C307.281 8.98022 307.96 7.53497 307.369 6.34696C306.943 5.49337 305.971 5.05371 305.107 5.32499C304.112 5.63602 303.508 6.70944 303.756 7.72907C303.978 8.64113 304.761 9.28892 305.66 9.28892Z" fill="white"/>
<path d="M315.808 8.61306C316.154 8.81652 316.499 8.99191 316.869 9.12054C317.322 9.27722 317.782 9.34738 318.259 9.26319C318.391 9.23981 318.515 9.20005 318.622 9.12288C318.89 8.92877 318.856 8.59669 318.556 8.46339C318.318 8.35815 318.055 8.33944 317.802 8.29033C317.201 8.17574 316.59 8.09623 316.017 7.85769C315.888 7.8039 315.845 7.7431 315.845 7.59811C315.852 6.29551 315.85 4.99291 315.845 3.69031C315.845 3.57805 315.884 3.53128 315.983 3.49386C316.611 3.26234 317.259 3.20154 317.921 3.23428C318.873 3.28105 319.715 3.62483 320.475 4.18609C320.703 4.35447 320.723 4.46906 320.562 4.69824C320.309 5.05839 320.056 5.41853 319.803 5.77634C319.679 5.95407 319.554 5.9798 319.369 5.86521C318.89 5.5682 318.381 5.3437 317.814 5.27588C317.549 5.24314 317.281 5.24548 317.018 5.28757C316.925 5.3016 316.838 5.332 316.762 5.38813C316.573 5.52143 316.57 5.74827 316.762 5.87924C316.93 5.99383 317.12 6.05697 317.31 6.12011C317.69 6.2464 318.087 6.28615 318.474 6.37502C318.987 6.49429 319.491 6.6346 319.929 6.9433C320.557 7.38296 320.913 7.96995 320.932 8.7487C320.947 9.35674 320.832 9.92268 320.433 10.4021C320.075 10.8324 319.603 11.0779 319.065 11.1925C317.648 11.4942 316.302 11.3188 315.051 10.5588C314.966 10.5073 314.951 10.4816 315.024 10.3951C315.431 9.918 315.669 9.35907 315.779 8.74402C315.784 8.72064 315.789 8.69959 315.794 8.6762C315.796 8.66217 315.801 8.6458 315.808 8.6154V8.61306Z" fill="white"/>
<path d="M319.976 11.1668C320.141 11.0616 320.304 10.9563 320.448 10.823C320.944 10.3623 321.173 9.78003 321.224 9.12054C321.261 8.67387 321.219 8.23187 321.039 7.8156C320.772 7.19353 320.304 6.76089 319.703 6.46389C319.635 6.42881 319.606 6.39139 319.608 6.31422C319.61 6.24874 319.63 6.21834 319.696 6.20665C319.837 6.18092 319.942 6.09907 320.022 5.98448C320.302 5.58692 320.582 5.19169 320.859 4.79179C321.037 4.53455 320.981 4.20013 320.733 4.00836C320.445 3.78619 320.141 3.58975 319.815 3.42839C319.788 3.41436 319.754 3.40968 319.737 3.3746C319.783 3.33017 319.842 3.33484 319.895 3.33484C321.699 3.33484 323.505 3.33484 325.309 3.33484C325.511 3.33484 325.601 3.43073 325.601 3.63652C325.601 4.09255 325.601 4.54624 325.601 5.00227C325.601 5.20806 325.504 5.30628 325.297 5.30628C324.226 5.30628 323.155 5.30628 322.086 5.30628C321.816 5.30628 321.738 5.3858 321.738 5.65941C321.738 5.75296 321.738 5.84416 321.738 5.93771C321.738 6.18326 321.828 6.27446 322.071 6.27446C322.987 6.27446 323.904 6.27446 324.82 6.27446C324.854 6.27446 324.89 6.27446 324.924 6.27446C325.066 6.28148 325.168 6.37736 325.168 6.51768C325.17 7.01814 325.17 7.52094 325.168 8.0214C325.168 8.18042 325.058 8.26695 324.881 8.26929C324.014 8.26929 323.15 8.26929 322.283 8.26929C322.193 8.26929 322.106 8.26929 322.015 8.26929C321.845 8.27163 321.743 8.37219 321.738 8.54291C321.736 8.6575 321.738 8.77443 321.738 8.88902C321.738 9.09482 321.838 9.1907 322.047 9.1907C323.106 9.1907 324.165 9.1907 325.224 9.1907C325.258 9.1907 325.294 9.1907 325.329 9.1907C325.499 9.19538 325.604 9.2936 325.604 9.46432C325.604 9.94607 325.604 10.4278 325.604 10.9096C325.604 11.0803 325.501 11.1808 325.326 11.1808C323.559 11.1808 321.794 11.1808 320.027 11.1808C320.01 11.1808 319.988 11.1879 319.971 11.1621L319.976 11.1668Z" fill="white"/>
<path d="M315.548 5.92133C315.548 6.61122 315.55 7.30111 315.548 7.99099C315.545 8.76273 315.358 9.48068 314.876 10.0981C314.384 10.7295 313.724 11.0896 312.945 11.237C312.101 11.396 311.276 11.3375 310.487 10.9774C309.976 10.7435 309.562 10.3951 309.245 9.93203C309.192 9.85486 309.187 9.80107 309.245 9.71922C310.351 8.12897 310.263 6.01721 309.038 4.51349C308.958 4.41527 308.875 4.31705 308.783 4.23052C308.707 4.16036 308.681 4.08553 308.686 3.98731C308.693 3.86804 308.686 3.74877 308.686 3.6295C308.688 3.44475 308.79 3.34419 308.975 3.34419C309.482 3.34419 309.988 3.34419 310.494 3.34419C310.728 3.34419 310.818 3.43072 310.818 3.66224C310.818 5.08879 310.818 6.51534 310.818 7.94188C310.818 8.22251 310.862 8.49379 311.008 8.74168C311.278 9.19771 311.828 9.43391 312.376 9.32867C312.926 9.22344 313.306 8.83523 313.393 8.29501C313.415 8.16405 313.418 8.03543 313.418 7.90446C313.418 6.49663 313.418 5.09113 313.418 3.68329C313.418 3.60144 313.418 3.51959 313.469 3.45177C313.527 3.37459 313.605 3.34419 313.7 3.34419C314.221 3.34419 314.744 3.34419 315.265 3.34419C315.453 3.34419 315.548 3.44241 315.548 3.63184C315.548 4.39422 315.548 5.15895 315.548 5.92133Z" fill="white"/>
<path d="M293.97 9.45262C294.121 9.76599 294.314 10.0303 294.525 10.2805C294.574 10.3366 294.577 10.3857 294.525 10.4419C294.338 10.6383 294.194 10.8675 294.06 11.1013C294.022 11.1668 293.98 11.1925 293.905 11.1879C293.778 11.1808 293.649 11.1879 293.523 11.1855C293.42 11.1855 293.34 11.1294 293.308 11.0359C293.274 10.9353 293.243 10.816 293.323 10.7295C293.647 10.3834 293.866 9.98348 293.946 9.51576C293.949 9.50173 293.956 9.4877 293.97 9.45496V9.45262Z" fill="white"/>
<path d="M293.914 8.04712C293.783 7.70334 293.591 7.42271 293.333 7.18885C293.306 7.16547 293.301 7.1374 293.301 7.10466C293.301 7.06257 293.306 7.02047 293.301 6.97838C293.286 6.83806 293.328 6.72581 293.415 6.60888C293.846 6.04995 293.854 5.42087 293.693 4.77074C293.632 4.52051 293.523 4.29133 293.367 4.08787C293.318 4.02239 293.294 3.95691 293.299 3.87505C293.303 3.78385 293.299 3.69031 293.301 3.59676C293.308 3.44241 293.406 3.34419 293.559 3.34419C294.058 3.34185 294.557 3.33951 295.054 3.34419C295.236 3.34419 295.373 3.44241 295.475 3.59442C296.132 4.56026 296.794 5.52377 297.454 6.48727C297.468 6.51066 297.483 6.53171 297.5 6.55509C297.612 6.71412 297.724 6.71412 297.834 6.55041C298.496 5.58457 299.16 4.61873 299.818 3.64821C299.961 3.43774 300.141 3.33718 300.399 3.34185C300.847 3.35121 301.295 3.34185 301.743 3.34419C301.943 3.34419 302.042 3.44241 302.042 3.64119C302.042 6.05697 302.042 8.47508 302.042 10.8909C302.042 11.0896 301.945 11.1855 301.741 11.1855C301.59 11.1855 301.424 11.2229 301.293 11.1715C301.164 11.1224 301.13 10.94 301.047 10.823C300.886 10.5939 300.713 10.3787 300.506 10.1916C300.436 10.1285 300.426 10.0817 300.528 10.0466C300.93 9.90631 301.246 9.30295 301.151 8.90305C301.025 8.36049 300.601 7.95825 300.083 7.95825C299.241 7.95825 298.761 8.79781 299.036 9.45262C299.053 9.49471 299.07 9.53447 299.092 9.58358C299.034 9.56955 299.019 9.52979 299.007 9.49004C298.946 9.29827 298.802 9.2094 298.617 9.17199C297.283 8.89837 296.074 9.15562 295 10.0092C294.83 10.1448 294.827 10.1448 294.693 9.97179C294.45 9.65608 294.238 9.32166 294.153 8.92409C294.112 8.73701 294.112 8.54758 294.146 8.36049C294.211 7.98398 294.506 7.72673 294.937 7.65891C295.275 7.60512 295.672 7.79689 295.823 8.10558C295.942 8.3488 295.962 8.61306 295.823 8.84926C295.682 9.09247 295.304 9.25851 295.007 9.1065C294.803 9.00127 294.703 8.75104 294.771 8.53355C294.825 8.36517 294.981 8.26461 295.144 8.28799C295.214 8.29735 295.256 8.33477 295.273 8.40025C295.287 8.46339 295.268 8.5125 295.212 8.54992C295.173 8.57564 295.132 8.59903 295.1 8.63177C295.059 8.67386 295.054 8.72765 295.083 8.78144C295.112 8.83523 295.156 8.8516 295.217 8.84692C295.448 8.82587 295.628 8.66685 295.601 8.38388C295.582 8.17106 295.338 7.95357 295.11 7.95825C294.659 7.96761 294.319 8.40259 294.438 8.83757C294.53 9.18134 294.754 9.40351 295.11 9.48068C295.2 9.49939 295.295 9.49471 295.373 9.46665C295.643 9.37077 295.932 9.29125 296.103 9.03401C296.183 8.9124 296.208 8.76039 296.212 8.6154C296.237 7.90446 295.864 7.41336 295.146 7.33852C294.652 7.28707 294.265 7.51392 293.987 7.92317C293.963 7.95825 293.944 7.99567 293.91 8.0518L293.914 8.04712Z" fill="white"/>
<path d="M300.523 10.7014C300.582 10.7084 300.633 10.7342 300.633 10.795C300.633 10.8558 300.589 10.8955 300.531 10.8955C300.465 10.8955 300.424 10.8628 300.426 10.7903C300.426 10.7272 300.47 10.7084 300.523 10.7014Z" fill="white"/>
<path d="M284.947 26.7325L290.687 25.6053C291.11 27.3593 292.675 28.2059 294.469 28.2059C295.806 28.2059 296.655 27.8621 296.655 27.0787C296.655 26.2952 295.84 25.8252 292.578 25.3879C287.099 24.6676 285.436 22.3477 285.436 19.2467C285.436 15.4862 288.143 13.2622 293.686 13.2622C299.228 13.2622 301.741 15.9259 302.361 19.2139L296.556 20.3739C296.066 18.6503 295.219 17.9301 293.359 17.9301C291.957 17.9301 291.371 18.4305 291.371 19.1508C291.371 19.7775 291.631 20.3108 295.511 20.8416C301.186 21.625 302.653 24.1624 302.653 26.8892C302.653 30.6497 300.078 32.9977 294.043 32.9977C287.293 32.9977 285.368 29.8639 284.944 26.7325H284.947Z" fill="white"/>
<path d="M315.535 29.6464H308.393L307.383 32.5299H301.351L308.625 13.7323H315.572L322.811 32.5299H316.517L315.538 29.6464H315.535ZM309.959 25.1353H314.002L313.186 22.7546C312.795 21.5946 312.403 20.437 312.045 19.3075H311.979C311.587 20.4347 311.229 21.5946 310.806 22.7546L309.959 25.1353Z" fill="white"/>
<path d="M333.342 24.0712V13.7323H339.214V24.9178C339.214 29.9318 336.017 32.9696 330.18 32.9696C324.343 32.9696 321.146 29.9294 321.146 24.9178V13.7323H327.018V24.0712C327.018 26.0146 327.702 27.6423 330.182 27.6423C332.663 27.6423 333.347 26.0123 333.347 24.0712H333.342ZM326.624 10.4115L334.581 8.28099L335.331 11.1645L327.276 12.9184L326.624 10.4115Z" fill="white"/>
<path d="M340.647 13.7323H349.518C356.562 13.7323 359.498 17.2098 359.498 22.8505C359.498 28.4912 355.813 32.5323 349.486 32.5323H340.647V13.7323ZM346.519 18.4329V27.8317H348.931C352.29 27.8317 353.661 26.0777 353.661 22.8505C353.661 19.6232 352.29 18.4329 348.802 18.4329H346.519Z" fill="white"/>
<path d="M360.411 13.7323H376V19.0573H366.282V20.9375H375.348V25.2288H366.282V27.2026H376V32.5299H360.411V13.7323Z" fill="white"/>
</g>
<path d="M451.585 49H167.952C153.701 49 142.149 60.4791 142.149 74.6393C142.149 88.7994 153.701 100.279 167.952 100.279H451.585C465.836 100.279 477.388 88.7994 477.388 74.6393C477.388 60.4791 465.836 49 451.585 49Z" fill="#0B6FE0"/>
<path d="M166.018 76.1235V86.7879H163.696V62.0738H172.852C177.784 62.0738 180.648 64.3409 180.648 69.0783C180.648 73.3177 177.743 76.1235 172.852 76.1235H166.018ZM166.018 64.1375V74.0598H172.648C176.382 74.0598 178.285 72.5349 178.285 69.119C178.285 65.7031 176.669 64.1375 172.607 64.1375H166.018Z" fill="#F4F4F4"/>
<path d="M191.596 75.6661H185.631V86.7879H183.308V62.0738H193.007C198.767 62.0738 201.09 65.0017 201.09 68.9563C201.09 72.7077 198.686 75.2187 194.123 75.6254L202.665 86.7066V86.7879H199.852L191.606 75.6661H191.596ZM185.631 64.1375V73.5718H192.803C196.496 73.5718 198.767 71.9249 198.767 68.9563C198.767 65.9878 197.356 64.1375 192.803 64.1375H185.631Z" fill="#F4F4F4"/>
<path d="M204.896 74.3953C204.896 67.1061 209.786 61.6265 217.449 61.6265C225.112 61.6265 230.013 67.1061 230.013 74.3953C230.013 81.6845 225.163 87.2454 217.449 87.2454C209.735 87.2454 204.896 81.6845 204.896 74.3953ZM227.69 74.3953C227.69 68.3362 223.915 63.8122 217.449 63.8122C210.983 63.8122 207.167 68.3464 207.167 74.3953C207.167 80.4442 210.901 85.0597 217.449 85.0597C223.997 85.0597 227.69 80.4849 227.69 74.3953Z" fill="#F4F4F4"/>
<path d="M235.159 75.2187V86.7879H232.837V62.0738H248.378V64.2595H235.159V73.033H246.802V75.2187H235.159Z" fill="#F4F4F4"/>
<path d="M251.989 86.7879V62.0738H254.311V86.7879H251.989Z" fill="#F4F4F4"/>
<path d="M256.961 78.0551L259.202 77.6383C259.949 82.2131 262.721 85.0902 267.868 85.0902C272.349 85.0902 274.538 83.1992 274.538 80.3934C274.538 77.5875 272.676 76.154 267.53 75.2899C260.737 74.1005 258.496 71.6199 258.496 68.1634C258.496 64.29 261.565 61.6163 266.742 61.6163C272.584 61.6163 275.029 65.1135 276.114 69.8103L273.832 70.2271C272.963 66.1098 271.182 63.7207 266.66 63.7207C263.059 63.7207 260.818 65.449 260.818 68.082C260.818 70.5118 262.23 72.118 268.154 73.1855C274.988 74.4258 276.861 76.8962 276.861 80.2714C276.861 84.348 273.955 87.2352 267.786 87.2352C261.156 87.1539 257.637 83.4432 256.972 78.0551H256.961Z" fill="#F4F4F4"/>
<path d="M278.436 78.0551L280.677 77.6383C281.424 82.2131 284.196 85.0902 289.342 85.0902C293.824 85.0902 296.013 83.1992 296.013 80.3934C296.013 77.5875 294.151 76.154 289.005 75.2899C282.211 74.1005 279.971 71.6199 279.971 68.1634C279.971 64.29 283.04 61.6163 288.217 61.6163C294.059 61.6163 296.504 65.1135 297.589 69.8103L295.307 70.2271C294.437 66.1098 292.657 63.7207 288.135 63.7207C284.534 63.7207 282.293 65.449 282.293 68.082C282.293 70.5118 283.705 72.118 289.629 73.1855C296.463 74.4258 298.335 76.8962 298.335 80.2714C298.335 84.348 295.43 87.2352 289.261 87.2352C282.631 87.1539 279.111 83.4432 278.446 78.0551H278.436Z" fill="#F4F4F4"/>
<path d="M301.435 86.7879V62.0738H303.758V86.7879H301.435Z" fill="#F4F4F4"/>
<path d="M306.571 74.3953C306.571 67.1061 311.462 61.6265 319.125 61.6265C326.788 61.6265 331.688 67.1061 331.688 74.3953C331.688 81.6845 326.839 87.2454 319.125 87.2454C311.411 87.2454 306.571 81.6845 306.571 74.3953ZM329.366 74.3953C329.366 68.3362 325.591 63.8122 319.125 63.8122C312.659 63.8122 308.843 68.3464 308.843 74.3953C308.843 80.4442 312.577 85.0597 319.125 85.0597C325.673 85.0597 329.366 80.4849 329.366 74.3953Z" fill="#F4F4F4"/>
<path d="M342.052 72.789C340.149 70.0746 338.277 67.1061 336.783 64.6357H336.702C336.742 67.2281 336.783 70.6134 336.783 73.4091V86.7981H334.502V62.0738H337.53L346.073 74.4664C348.396 77.8416 350.421 80.9728 351.956 83.4432H352.079C352.038 81.0542 351.997 78.045 351.997 75.4526V62.0636H354.278V86.7778H351.751L342.052 72.7788V72.789Z" fill="#F4F4F4"/>
<path d="M373.349 78.5939H361.624L358.228 86.7879H355.741L366.351 62.0738H368.714L379.283 86.7879H376.797L373.359 78.5939H373.349ZM362.494 76.5709H372.52L371.405 73.9378C370.116 70.8473 368.551 66.9739 367.548 64.3409H367.425C366.433 67.0553 364.898 70.8473 363.568 73.9378L362.494 76.5709Z" fill="#F4F4F4"/>
<path d="M380.725 86.7879V62.0738H383.048V86.7879H380.725Z" fill="#F4F4F4"/>
<path d="M385.708 78.0551L387.949 77.6383C388.695 82.2131 391.468 85.0902 396.614 85.0902C401.095 85.0902 403.285 83.1992 403.285 80.3934C403.285 77.5875 401.423 76.154 396.277 75.2899C389.483 74.1005 387.243 71.6199 387.243 68.1634C387.243 64.29 390.312 61.6163 395.489 61.6163C401.331 61.6163 403.776 65.1135 404.86 69.8103L402.579 70.2271C401.709 66.1098 399.929 63.7207 395.407 63.7207C391.806 63.7207 389.565 65.449 389.565 68.082C389.565 70.5118 390.977 72.118 396.901 73.1855C403.735 74.4258 405.607 76.8962 405.607 80.2714C405.607 84.348 402.702 87.2352 396.532 87.2352C389.903 87.1539 386.383 83.4432 385.718 78.0551H385.708Z" fill="#F4F4F4"/>
<path d="M417.741 62.0738H425.946C434.694 62.0738 438.131 67.8787 436.801 75.2492C435.512 82.6198 430.295 86.7778 422.795 86.7778H413.342L417.731 62.0636L417.741 62.0738ZM419.194 63.6394L415.337 85.2223H422.918C430.008 85.2223 433.988 81.5116 435.144 74.9239C436.3 68.3362 433.528 63.6394 425.445 63.6394H419.184H419.194Z" fill="#F4F4F4"/>
<path d="M442.203 62.0738H457.949L457.662 63.7207H443.656L441.958 73.3177H454.429L454.143 74.9646H441.671L439.85 85.141H453.938L453.652 86.7879H437.814L442.203 62.0738Z" fill="#F4F4F4"/>
<path d="M13.0106 211.514L49.2594 204.149C51.935 215.607 61.8201 221.136 73.1491 221.136C81.5902 221.136 86.9521 218.888 86.9521 213.771C86.9521 208.654 81.8025 205.584 61.2042 202.725C26.6012 198.019 16.1004 182.869 16.1004 162.612C16.1004 138.05 33.1948 123.522 68.2013 123.522C103.208 123.522 119.071 140.92 122.988 162.401L86.3257 169.976C83.2359 158.719 77.8846 154.013 66.1415 154.013C57.2863 154.013 53.5807 157.284 53.5807 161.99C53.5807 166.083 55.2265 169.565 79.7321 173.036C115.567 178.153 124.836 194.728 124.836 212.537C124.836 237.098 108.57 252.439 70.4628 252.439C27.8329 252.439 15.6757 231.971 13 211.514H13.0106Z" fill="#F4F4F4"/>
<path d="M206.189 230.547H161.085L154.703 249.379H116.607L162.529 126.593H206.401L252.121 249.379H212.368L206.189 230.547ZM170.97 201.079H196.505L191.356 185.528C188.882 177.952 186.418 170.388 184.146 163.013H183.732C181.258 170.377 178.997 177.952 176.321 185.528L170.97 201.079Z" fill="#F4F4F4"/>
<path d="M318.63 194.116V126.582H355.707V199.644C355.707 232.393 335.522 252.238 298.658 252.238C261.793 252.238 241.609 232.382 241.609 199.644V126.582H278.675V194.116C278.675 206.808 282.997 217.443 298.658 217.443C314.319 217.443 318.63 206.797 318.63 194.116ZM276.201 104.89L326.455 90.9742L331.19 109.807L280.321 121.265L276.201 104.89Z" fill="#F4F4F4"/>
<path d="M364.753 126.582H420.772C465.26 126.582 483.788 149.297 483.788 186.14C483.788 222.982 460.514 249.379 420.559 249.379H364.742V126.593L364.753 126.582ZM401.819 157.284V218.677H417.056C438.27 218.677 446.912 207.219 446.912 186.14C446.912 165.06 438.259 157.284 416.227 157.284H401.809H401.819Z" fill="#F4F4F4"/>
<path d="M489.553 126.582H588V161.367H526.63V173.648H583.88V201.68H526.63V214.573H588V249.358H489.553V126.572V126.582Z" fill="#F4F4F4"/>
<path d="M29.9839 274.106C29.7742 274.106 29.7742 273.968 29.7742 273.968C29.305 274.499 27.9871 276.445 27.5179 276.976C26.5295 278.326 23.8338 282.748 23.2448 283.801C23.2448 283.801 23.115 284.173 21.5675 287.532L21.6274 287.383C21.2979 287.83 19.5108 290.168 19.0416 290.626C17.9034 291.614 17.1447 291.646 15.8368 291.678L14.469 291.72C14.3292 291.582 13.251 289.924 13.0912 289.116L13.0014 288.457C12.9515 286.692 14.2693 284.449 15.1878 283.248L24.4928 269.365C24.353 269.227 24.1433 269.152 23.8638 269.014C21.0683 267.196 19.8703 263.773 19.5508 259.744C19.431 257.98 19.7904 256.141 20.9884 254.557C22.1166 252.973 23.105 251.623 27.2184 251.123C27.9671 250.804 31.9607 251.272 34.8161 252.431C35.4251 251.973 36.6032 249.879 36.7929 249.507C36.9226 249.358 38.4502 247.466 39.0991 245.978C39.5484 244.862 41.1758 241.577 41.4353 241.13C41.9545 240.152 44.8099 234.04 45.8482 231.808C46.2376 230.989 47.0462 228.098 47.4356 227.279C48.1944 224.972 50.3309 222.782 51.9783 222.729C52.3177 222.719 53.5657 222.899 53.975 223.038C54.2546 223.325 56.2114 224.292 56.441 225.312L56.5309 228.395L56.2414 230.245C55.9518 232.382 55.2829 235.422 55.233 235.932C54.7538 240.801 51.4291 266.984 51.0797 271.916C52.4575 271.948 54.7837 271.576 56.8903 270.853C57.9686 270.162 60.185 268.323 63.0104 263.826L64.6178 262.306L65.5064 262.136C66.5946 261.881 67.2336 262.306 67.553 263.986C67.7727 264.645 67.6629 265.527 67.6828 266.261L67.5031 267.217C66.984 268.408 64.6877 272.299 63.6194 273.213C61.423 275.637 59.6059 276.944 57.709 278.029C55.9618 279.411 51.2095 278.964 51.1396 279.113C51.0098 279.41 51.3093 282.855 51.2694 283.811C51.2095 284.258 51.7586 286.512 51.7986 287.84C51.9184 289.743 51.3892 290.349 49.8417 291.433C49.8417 291.433 49.5023 291.519 49.2926 291.529C48.3342 291.561 47.4256 291.146 46.7268 290.509C46.2975 289.935 45.0295 288.872 44.8199 288.585C44.74 288.149 44.3306 285.736 44.1509 284.12C44.0711 283.833 44.0611 283.386 44.0511 283.163L44.2308 279.634L44.141 278.975C42.5635 278.953 40.8962 278.56 39.6482 278.156L30.2634 274.191C30.1237 274.191 29.9839 274.127 29.9839 274.127V274.106ZM28.4564 263.507L31.4815 258.639C31.4815 258.49 30.0937 258.022 29.3249 257.82L27.6776 258.022C26.1102 258.586 26.3298 261.52 28.4464 263.507H28.4564ZM34.257 267.143C34.6164 267.643 36.9825 268.674 37.4019 269.025C38.5201 269.652 40.0576 270.555 43.3123 271.406C42.4936 269.227 40.4569 265.102 38.8994 263.465C38.7497 263.178 37.7014 262.402 37.2821 262.264L35.1056 265.559C34.9059 265.857 34.3169 266.909 34.257 267.132V267.143ZM42.6833 258.947L43.3922 259.808C44.0411 260.818 45.2092 263.571 45.5187 264.592L46.2775 259.649C46.577 258.171 47.4456 252.335 48.1245 244.532L48.8034 239.217C46.7368 244.054 44.081 249.72 41.7948 254.057C41.4653 254.727 40.6067 255.928 40.417 256.523C40.996 257.384 42.1142 258.16 42.6833 258.947Z" fill="#0B6FE0"/>
<path d="M72.1356 282.695L71.1971 283.386C69.0306 284.556 67.0638 285.576 64.5279 285.651C60.6841 285.842 58.1782 282.1 57.8787 278.656C57.6491 275.435 59.5959 268.759 61.2732 264.815C62.5511 261.243 68.0123 250.273 70.6879 250.188C72.4052 250.06 73.6032 251.272 73.723 253.175C73.8129 253.834 73.6232 254.429 73.3636 255.099C71.277 259.202 68.5314 264.071 67.6129 265.857C66.3749 268.397 63.9089 273.319 64.1286 276.477C64.1385 276.912 63.7092 278.836 65.087 278.794L66.1054 278.539C69.1704 277.561 71.4767 273.819 73.6432 270.364L73.9027 269.769C74.7613 268.493 76.6683 265.346 77.1874 264.23L82.2792 254.45C82.988 252.962 84.3658 250.485 86.2627 249.624C88.8685 249.465 89.7371 250.91 89.9468 253.547C90.0566 254.939 88.7387 256.895 87.7603 258.83L84.3558 264.889C83.3774 266.686 82.7284 268.249 82.1094 270.545C81.5004 273.213 80.5021 276.838 81.7201 278.634C82.7085 279.708 87.7104 276.753 90.0466 274.18C91.5841 272.511 93.8904 269.28 95.8172 269.152C97.5345 269.025 97.9738 270.035 98.0137 271.363C98.0137 271.661 97.9738 272.246 97.9039 272.469C95.7374 278.411 88.7487 284.364 81.9098 285.459H82.0495C81.6402 285.544 81.2309 285.555 80.9513 285.566C78.7549 285.64 75.5501 284.194 74.961 280.176C74.4219 280.41 72.475 282.238 72.1456 282.685L72.1356 282.695Z" fill="#0B6FE0"/>
<path d="M120.218 274.637C121.066 273.064 121.546 270.555 122.195 269.067C122.764 267.143 123.283 266.016 124.042 263.869C125.06 261.116 125.719 257.65 124.221 257.916C123.193 258.097 120.797 260.892 120.078 262.009C118.82 263.816 118.471 263.38 114.217 271.3L112.93 274.202C112.67 274.723 112.261 274.808 109.395 280.484C108.397 281.547 107.339 285.767 105.012 285.842C103.155 285.895 102.087 284.322 101.688 282.419C101.967 279.91 103.405 277.518 104.303 275.137C105.282 273.341 105.751 270.322 106.61 269.035C108.157 265.389 111.682 256.236 108.996 255.885C107.628 256.226 103.565 263.178 103.355 263.189C101.578 265.814 98.2633 272.894 95.7973 272.979C94.9686 273 94.12 272.001 93.9303 270.098C93.9303 269.801 94.5293 266.994 95.977 264.815L100.04 257.778C102.397 253.664 106.869 248.891 111.332 248.752C114.417 248.657 115.465 251.559 115.545 254.418C115.485 254.567 114.677 260.18 114.747 260.244L116.334 257.916L120.457 252.941C122.274 251.559 124.401 248.848 126.937 248.774C129.822 248.689 132.568 251.24 132.458 254.62L132.238 256.683L131.859 258.012L132.258 257.416L136.382 252.441C138.199 251.059 140.325 248.349 142.861 248.274C145.746 248.189 148.492 250.74 148.382 254.121L148.162 256.183C146.775 260.786 145.137 265.899 143.24 271.99C142.861 273.256 142.951 276.551 144.329 276.657C146.106 276.455 150.159 271.257 151.118 268.876C151.247 268.578 154.512 262.381 156.359 262.242C158.146 262.189 159.115 262.593 159.145 263.55C159.145 263.922 158.955 264.294 158.895 264.656L158.466 266.505C157.467 270.215 154.043 275.318 151.717 278.326C149.91 280.07 146.246 284.077 142.741 284.194C139.716 284.29 137.21 280.325 137.16 278.858C137.15 278.422 136.921 277.763 136.911 277.401V275.413C136.891 274.17 137.05 272.543 137.43 271.214L138.049 268.918C138.608 266.771 139.127 265.655 139.956 263.348C140.974 260.595 141.633 257.129 140.135 257.395C139.107 257.576 136.711 260.371 135.992 261.488C134.734 263.295 134.385 262.859 130.132 270.779L128.295 273.851C127.965 274.372 128.175 274.297 125.3 279.974C124.301 281.037 123.243 285.257 120.917 285.332C119.06 285.385 117.991 283.811 117.592 281.909C117.862 279.4 119.309 277.008 120.208 274.627L120.218 274.637Z" fill="#0B6FE0"/>
<path d="M152.905 273.83C153.334 264.56 155.491 258.097 162.14 250.103C165.534 246.254 171.105 243.948 176.327 243.926C180.101 243.884 181.439 249.72 181.159 252.005C180.79 255.981 179.701 258.809 177.325 262.264C175.219 265.41 167.351 271.831 161.521 272.022L159.464 272.086C158.745 273.5 159.604 277.221 161.89 277.816C164.506 277.88 167.042 277.657 170.676 275.041C174.859 272.192 179.891 265.495 182.627 265.113C183.725 265.081 184.104 266.239 184.054 266.973C183.945 270.577 178.284 276.923 172.004 280.867C167.95 283.418 163.707 283.918 160.622 284.013C158.146 284.013 152.535 279.719 152.915 273.83H152.905ZM173.132 257.544C174.39 255.811 175.319 252.335 173.771 250.91C170.996 250.039 166.293 253.642 164.386 256.938C162.739 259.638 160.842 262.997 160.453 266.239H160.522C165.175 265.432 171.435 260.829 173.132 257.533V257.544Z" fill="#0B6FE0"/>
<path d="M190.654 272.416C191.632 270.619 192.101 267.6 192.96 266.314C194.507 262.668 198.032 253.515 195.336 253.164C193.968 253.504 190.793 257.788 190.085 259.5C188.507 262.2 184.983 268.844 183.096 270.226C181.748 271.225 181.479 271.374 180.64 270.959C179.871 270.619 179.701 269.152 179.512 267.249C179.512 266.952 181.868 262.987 182.986 261.116C183.974 259.468 185.083 257.448 186.391 255.056C188.747 250.793 193.22 246.169 197.682 246.031C200.767 245.935 201.816 248.837 201.895 251.697C201.836 251.846 201.027 257.459 201.097 257.523L202.684 255.194L206.808 250.219C208.625 248.837 210.751 246.127 213.287 246.052C216.172 245.967 218.918 248.519 218.808 251.899L218.588 253.961C217.211 258.564 215.563 263.678 213.666 269.769C213.287 271.034 213.377 274.329 214.755 274.435C216.532 274.234 221.054 268.876 222.023 266.643C222.153 266.346 225.148 260.595 227.055 260.021C228.842 259.968 229.68 260.669 229.71 261.626C229.72 261.998 229.521 262.37 229.471 262.731L229.042 264.581C228.183 268.355 224.469 273.096 222.153 276.115C220.346 277.858 216.682 281.866 213.177 281.983C210.152 282.079 207.646 278.114 207.596 276.647C207.586 276.211 207.706 275.541 207.696 275.18L207.576 273.202C207.476 271.959 207.496 270.343 207.876 269.003L208.495 266.707C209.054 264.56 209.573 263.444 210.402 261.137C211.42 258.384 212.079 254.918 210.581 255.184C209.553 255.365 207.157 258.16 206.438 259.277C205.18 261.084 204.831 260.648 200.578 268.568L199.29 271.47C199.03 271.99 198.621 272.076 195.755 277.752C194.757 278.815 193.699 283.035 191.373 283.11C189.516 283.163 188.447 281.59 188.048 279.687C188.317 277.178 189.765 274.786 190.664 272.405L190.654 272.416Z" fill="#0B6FE0"/>
<path d="M229.091 253.653C229.79 251.718 232.785 245.531 234.103 243.575L229.501 243.65H229.641C229.85 243.639 225.497 242.895 225.168 241.067C225.198 239.674 226.805 238.08 227.194 237.325C227.614 237.537 227.863 236.644 230.819 236.623L234.523 236.506C235.96 236.464 237.468 236.336 238.117 234.848L240.553 230.883C241.072 229.905 242.51 227.003 243.159 225.876C245.066 222.878 246.373 220.561 248.181 218.743L249.848 217.074C250.317 216.542 251.395 215.851 252.014 215.83C252.703 215.809 254.56 218.466 254.6 219.933C254.66 221.985 252.713 223.665 251.515 225.174C250.387 226.684 244.586 235.528 244.596 235.826L250.028 235.879C250.986 235.56 254.62 235.581 256.956 235.518C258.134 235.847 259.882 237.048 259.912 238.218C259.971 240.269 258.025 241.875 255.499 242.395C251.535 243.257 244.986 242.502 241.242 243.501C239.584 245.542 232.775 260.297 231.318 264.677C229.251 269.514 229.271 270.109 229.281 272.968C229.291 273.479 229.531 274.648 231.178 274.595C231.727 274.574 232.825 274.393 235.391 272.841C237.358 272.118 244.786 264.826 245.515 263.709L245.904 263.04C246.643 262.359 247.512 261.371 248.26 261.349C248.809 261.328 250.097 260.701 250.587 261.052C251.146 261.477 251.046 262.731 251.066 263.603C251.046 265.442 246.803 271.012 245.205 272.894C241.501 277.858 234.593 281.749 229.651 281.909C225.597 282.036 222.203 278.401 222.163 274.499C222.063 268.259 226.745 259 229.071 253.642L229.091 253.653Z" fill="#0B6FE0"/>
<path d="M243.937 270.959C244.367 261.69 246.523 255.226 253.172 247.232C256.567 243.384 262.138 241.077 267.359 241.056C271.133 241.014 272.471 246.85 272.192 249.135C271.822 253.111 270.734 255.939 268.358 259.394C266.251 262.551 258.384 268.961 252.553 269.152L250.497 269.216C249.778 270.63 250.637 274.35 252.923 274.946C255.539 275.01 258.074 274.786 261.709 272.171C265.892 269.322 270.924 262.625 273.659 262.242C274.757 262.211 275.137 263.369 275.087 264.103C274.977 267.706 269.316 274.053 263.036 277.997C258.983 280.548 254.74 281.048 251.645 281.143C249.169 281.143 243.558 276.849 243.947 270.959H243.937ZM264.165 254.674C265.423 252.941 266.351 249.465 264.804 248.04C262.028 247.169 257.326 250.772 255.419 254.068C253.771 256.768 251.875 260.127 251.485 263.369H251.555C256.208 262.561 262.467 257.958 264.165 254.663V254.674Z" fill="#0B6FE0"/>
<path d="M315.392 265.846C316.759 265.506 320.264 265.548 321.352 265.368C321.701 263.231 320.803 255.609 320.184 255.63L318.606 250.836C317.608 251.899 312.596 259.542 310.949 262.019C309.891 263.592 308.353 265.038 307.325 264.996C305.538 264.911 304.06 263.561 304.569 262.296C305.468 260.138 307.215 258.543 308.333 256.672C310.1 253.674 313.275 249.018 316.48 243.267C316.919 241.79 316.67 237.75 319.755 237.58C321.811 237.293 324.377 238.388 324.577 240.588C324.776 242.64 322.82 243.948 322.939 245.861C324.747 251.538 327.402 255.641 327.682 260.85C327.802 262.827 327.692 263.858 327.642 264.454L329 263.965C332.194 262.838 334.281 261.084 337.636 255.981C337.835 255.683 338.444 255.513 338.245 255.524C337.835 255.535 340.571 255.014 340.751 256.545C340.751 256.545 341.669 257.544 340.651 260.223C338.824 263.88 336.617 266.006 333.932 268.004C331.635 269.397 330.547 269.801 327.193 270.205C327.412 273.287 324.078 276.838 322.261 278.294C319.974 279.91 317.299 280.357 314.483 280.452C311.328 280.548 307.155 278.773 307.055 275.254C306.895 269.524 309.851 267.154 315.382 265.878L315.392 265.846ZM315.501 274.808C316.869 274.542 320.204 273.415 320.424 271.342C315.651 270.322 312.646 273.202 313.575 274.499C313.714 274.574 314.413 274.914 315.511 274.808H315.501Z" fill="#0B6FE0"/>
<path d="M333.662 268.132C334.091 258.862 336.248 252.399 342.897 244.405C346.292 240.556 351.863 238.25 357.084 238.228C360.858 238.186 362.196 244.022 361.916 246.307C361.547 250.283 360.459 253.111 358.083 256.566C355.976 259.712 348.109 266.133 342.278 266.324L340.221 266.388C339.503 267.802 340.361 271.523 342.648 272.118C345.263 272.182 347.799 271.959 351.433 269.344C355.617 266.495 360.648 259.797 363.384 259.415C364.482 259.383 364.862 260.542 364.812 261.275C364.702 264.879 359.041 271.225 352.761 275.169C348.708 277.72 344.465 278.22 341.37 278.316C338.894 278.316 333.283 274.021 333.662 268.132ZM353.889 251.846C355.147 250.113 356.076 246.637 354.528 245.213C351.753 244.341 347.05 247.945 345.143 251.24C343.496 253.94 341.599 257.299 341.21 260.542H341.28C345.932 259.734 352.192 255.131 353.889 251.835V251.846Z" fill="#0B6FE0"/>
<path d="M373.647 273.192L372.709 273.883C370.542 275.052 368.576 276.073 366.04 276.147C362.196 276.338 359.69 272.596 359.39 269.152C359.161 265.931 361.108 259.255 362.785 255.311C364.063 251.74 369.524 240.769 372.2 240.684C373.917 240.556 375.115 241.768 375.235 243.671C375.325 244.33 375.135 244.926 374.875 245.595C372.789 249.699 370.043 254.567 369.125 256.353C367.887 258.894 365.421 263.816 365.64 266.973C365.65 267.409 365.221 269.333 366.599 269.29L367.627 269.035C370.692 268.057 372.998 264.315 375.165 260.86L375.424 260.265C376.283 258.99 378.19 255.843 378.709 254.727L383.791 244.947C384.51 243.459 385.878 240.982 387.784 240.121C390.39 239.961 391.259 241.407 391.468 244.043C391.578 245.436 390.26 247.392 389.282 249.327L385.878 255.386C384.899 257.182 384.25 258.745 383.631 261.041C383.022 263.709 382.014 267.334 383.242 269.131C384.23 270.205 389.232 267.249 391.568 264.677C393.106 263.008 395.412 259.776 397.339 259.649C399.056 259.521 399.496 260.531 399.535 261.86C399.535 262.157 399.495 262.742 399.426 262.965C397.259 268.908 390.27 274.861 383.432 275.956H383.571C383.162 276.041 382.753 276.051 382.473 276.062C380.277 276.136 377.072 274.691 376.483 270.672C375.944 270.906 373.997 272.735 373.667 273.181L373.647 273.192Z" fill="#0B6FE0"/>
<path d="M431.014 272.703C431.264 271.672 431.933 268.706 431.853 268.344C432.542 263.327 433.291 258.235 433.351 253.015C433.48 252.569 433.351 248.391 433.351 247.945C433.59 246.541 433.441 238.909 436.256 238.739C438.043 238.611 439.241 239.897 439.571 241.79C439.74 242.884 439.361 244.075 439.321 245.255C439.461 250.315 438.293 257.778 437.903 263.295V263.805L438.592 263.199C440.659 261.073 442.446 258.671 444.313 256.481C445.771 254.674 447.448 253.153 448.776 251.495C449.904 250.134 453.668 244.734 454.327 243.682C455.325 242.332 455.615 240.556 457.671 240.418C460.077 240.344 460.557 242.895 460.816 244.724C461.156 247.211 459.768 249.167 460.117 251.655C460.117 251.729 462.234 253.568 463.672 253.526C464.57 253.568 467.535 251.718 467.396 251.495L470.321 250.368C471.898 250.315 472.348 251.559 472.587 252.792C472.677 253.377 472.837 254.185 472.427 254.482C469.492 257.735 467.066 259.5 463.112 260.361C462.973 260.361 460.227 260.233 459.948 260.169C457.242 259.223 454.397 255.567 453.488 255.088L448.706 260.818C447.628 261.583 447.658 262.689 446.18 263.688L440.279 271.438L439.89 272.182L436.266 277.805C436.206 278.177 435.048 278.284 434.559 278.294H434.219C432.332 277.04 431.344 276.189 431.004 274.074C430.835 272.905 430.795 273.861 431.034 272.681L431.014 272.703Z" fill="#0B6FE0"/>
<path d="M501.88 266.346C500.003 268.164 495.181 272.437 490.987 272.565C488.312 272.65 485.167 268.195 485.107 266.059C485.087 265.4 485.177 263.709 485.237 263.412C484.568 264.092 483.699 265.081 483.499 265.304C483.43 265.378 482.9 265.984 482.9 266.133C479.556 269.397 477.03 272.639 471.199 272.82C466.946 272.958 464.61 267.962 464.59 262.593C464.56 256.64 468.274 249.401 472.537 244.341C476.062 240.184 481.822 237.218 487.583 237.038C489.23 236.985 491.307 237.505 492.155 238.441C492.165 238.951 493.513 240.163 493.593 240.748C494.691 238.292 496.548 238.303 497.097 238.218C498.545 238.25 499.024 240.95 499.054 242.045C499.104 243.735 495.889 249.273 495.76 249.571C495.44 250.315 494.052 252.346 493.723 252.718C492.076 255.343 490.648 258.394 490.738 261.403C490.768 262.508 491.317 264.911 492.076 265.176C494.771 265.75 498.845 261.658 499.773 260.457C500.971 258.947 504.206 254.514 505.274 253.302C505.684 253.292 506.263 254.078 506.941 253.983H507.011C507.161 254.27 507.171 254.642 507.241 254.929C507.63 259.032 504.106 263.401 501.85 266.335L501.88 266.346ZM489.61 244.989C489.59 244.181 488.581 242.597 487.693 242.629C484.188 242.736 479.736 245.67 477.22 248.986C473.775 253.504 471.139 257.767 471.259 261.955C471.309 263.869 471.898 265.24 473.426 265.634C476.371 265.102 479.147 261.19 481.213 259.138C482.751 257.618 486.844 251.686 489.34 247.647C489.52 246.839 489.64 245.946 489.61 244.989Z" fill="#0B6FE0"/>
<path d="M504.346 256.066C507.171 246.499 512.153 230.404 515.767 222.208C518.583 214.852 524.493 202.617 530.473 202.425C532.26 202.372 534.387 204.87 535.176 206.018C536.284 208.633 536.254 210.1 536.274 213.406C536.234 219.359 531.851 229.639 529.425 233.976C526.021 240.11 519.152 247.594 513.451 249.986C513.191 250.432 510.436 257.799 509.467 259.957L509.278 260.478C508.898 261.743 509.677 264.868 512.083 265.091C514.409 264.794 518.862 259.298 520.25 257.267C521.438 255.545 525.132 250.134 526.789 250.379C528.576 250.326 528.936 250.974 528.966 251.931C528.966 252.303 529.066 252.888 528.297 254.886C527.299 258.586 523.185 263.72 520.859 266.728C519.052 268.472 514.769 272.501 510.516 272.639C506.812 272.756 503.058 268.833 503.018 267.366C503.008 266.856 502.349 265.548 502.299 263.933C502.249 262.03 503.647 258.086 504.346 256.077V256.066ZM525.102 229.331C527.199 225.812 531.072 216.797 531.172 212.907C531.182 210.993 530.833 210.643 529.994 210.154H529.585C528.487 210.132 527.488 211.259 526.52 213.566C524.453 215.979 520.879 225.568 520.879 225.568C519.331 229.214 517.594 233.317 516.526 237.017C516.526 237.091 516.416 238.122 516.356 238.196C515.727 240.131 516.226 238.271 515.528 240.429C518.643 238.717 521.708 235.241 525.112 229.331H525.102Z" fill="#0B6FE0"/>
<path d="M525.082 250.708C525.282 250.485 526.869 248.083 526.999 247.785C527.059 247.636 527.788 246.584 527.788 246.435L532.72 243.267C532.72 243.118 533.049 242.895 533.119 242.81C533.518 242.353 535.306 239.727 536.973 237.909C537.901 236.846 541.705 235.039 544.181 235.114C545.279 235.082 545.898 235.06 546.887 236.134C548.923 237.761 550.541 241.534 550.84 244.681C551.11 247.094 550.571 249.901 550.221 251.973C550.221 252.271 548.484 256.141 548.424 256.513C550.281 256.459 553.217 255.843 554.774 254.992C556.541 254.28 559.207 251.251 559.706 249.624C559.776 249.624 561.533 248.614 561.533 248.614C562.491 248.582 563.16 250.475 563.32 251.208C563.37 255.609 558.817 259.872 554.604 261.541C551.619 262.742 547.366 263.093 545.449 263.305C541.206 268.876 538.52 273.734 529.046 273.957L527.468 274.01C524.243 271.831 521.438 269.79 521.138 266.346C520.589 261.445 522.886 255.056 525.102 250.719L525.082 250.708ZM529.535 267.685C533.239 267.568 535.925 265.059 537.991 262.933C537.632 262.434 536.673 262.529 536.184 262.253C532.51 260.977 530.803 259.117 530.503 255.747C530.413 254.939 531.072 254.11 530.983 253.09V252.941C528.546 254.557 526.28 262.051 527.079 265.921C527.169 266.728 528.636 267.706 529.535 267.675V267.685ZM541.396 256.885C544.581 255.386 544.99 247.806 544.72 245.468C544.7 244.66 544.111 243.427 543.083 243.384C541.026 243.448 538.271 245.67 537.222 247.466C536.244 249.188 535.036 252.973 535.855 255.003C536.444 256.459 540.248 257.214 541.406 256.885H541.396Z" fill="#0B6FE0"/>
<path d="M568.212 259.702C570.079 255.311 573.604 248.582 577.048 244.001L576.968 243.416C576.01 243.522 574.712 243.926 573.753 243.958C572.455 244.075 570.838 243.023 569.87 242.683C569.46 242.619 564.568 252.101 563.64 253.462C562.671 255.62 559.536 259.096 557.22 259.691C555.992 260.021 553.177 260.116 553.127 258.128C555.523 255.482 558.418 250.613 560.635 246.361C561.084 245.393 564.638 239.621 564.538 238.526C564.448 237.793 563.61 237.304 563.51 236.209C563.21 232.69 565.377 229.32 566.964 227.141C568.023 225.706 570.668 224.303 572.655 224.175C574.372 224.122 576.938 224.994 577.058 226.684C577.258 228.959 575.64 232.53 574.262 234.71L573.214 236.432C573.564 236.644 574.901 237.697 575.451 237.686C577.847 237.537 580.632 236.198 582.09 234.316H582.02C583.068 232.669 583.887 232.275 585.734 232.148C588 232.073 588.939 233.817 589.039 234.912C589.039 235.135 588.789 235.953 588.469 236.549L588.21 237.218L582.409 245.85C582.21 246.148 581.491 247.349 581.091 247.732V247.658C579.434 249.911 577.218 254.387 575.87 257.523L574.512 260.722C573.873 262.359 573.963 263.305 574.392 263.89C575.6 265.325 579.095 262.561 582.699 258.703C585.364 255.822 588.31 250.592 589.258 249.826C590.017 249.954 591.994 249.518 592.633 250.156L592.922 250.592C592.153 257.374 587.361 263.103 582.389 267.154C579.234 269.747 575.49 270.97 571.567 270.8C569.57 270.492 567.344 267.186 567.334 266.824C567.244 263.592 567.853 263.284 568.232 259.744L568.212 259.702Z" fill="#0B6FE0"/>
<path d="M594.56 258.426H594.63C595.748 258.904 597.715 260.531 597.754 262.072C597.854 265.591 593.761 271.746 590.057 271.863C587.721 271.937 585.794 269.28 585.734 267.154C585.634 263.486 590.856 258.543 594.56 258.426ZM592.952 245.106C592.952 244.883 593.911 242.651 593.971 242.353C594.03 242.055 594.51 239.398 594.64 239.174C595.538 236.868 599.052 229.703 599.601 227.258C600.37 225.249 604.583 216.223 605.492 214.363C605.951 213.396 608.966 208.304 609.755 207.103C610.873 205.38 612.92 202.223 615.316 202.149C616.963 202.096 618.95 204.169 619 205.997L618.94 206.369C610.983 214.182 605.142 231.414 601.029 241.758L600.34 244.054C599.272 247.541 600.36 249.784 596.247 249.911C595.977 249.911 594.799 249.879 594.6 249.815C593.551 249.263 592.952 247.519 592.922 246.339L592.952 245.085V245.106Z" fill="#0B6FE0"/>
<defs>
<clipPath id="clip0_0_1">
<rect width="132" height="33" fill="white" transform="translate(244)"/>
</clipPath>
</defs>
</svg>
