<svg width="20" height="20" viewBox="0 0 20 20" fill="none" xmlns="http://www.w3.org/2000/svg">
<path fill-rule="evenodd" clip-rule="evenodd" d="M10.3334 0.333984C7.7073 0.333984 7.38025 0.345262 6.34753 0.393595C2.8353 0.554707 0.885859 2.50254 0.724748 6.01476C0.678026 7.04748 0.666748 7.37615 0.666748 10.0007C0.666748 12.6268 0.678026 12.9554 0.724748 13.9865C0.885859 17.4972 2.8353 19.4482 6.34753 19.6093C7.38025 19.656 7.7073 19.6673 10.3334 19.6673C12.9595 19.6673 13.2882 19.656 14.3209 19.6093C17.8267 19.4482 19.7842 17.5004 19.9421 13.9865C19.9888 12.9554 20.0001 12.6268 20.0001 10.0007C20.0001 7.37615 19.9888 7.04748 19.9421 6.01476C19.7842 2.50737 17.8331 0.553095 14.3209 0.393595C13.2882 0.345262 12.9595 0.333984 10.3334 0.333984ZM10.3335 2.07715C12.9145 2.07715 13.2206 2.08682 14.2404 2.13354C16.8617 2.25276 18.0829 3.49493 18.2038 6.09526C18.2489 7.11509 18.2586 7.41959 18.2586 10.0006C18.2586 12.5816 18.2489 12.8877 18.2038 13.9059C18.0829 16.5046 16.8633 17.75 14.2404 17.8693C13.2206 17.9144 12.9161 17.9256 10.3335 17.9256C7.7525 17.9256 7.44639 17.916 6.42817 17.8693C3.80206 17.7484 2.58567 16.5014 2.46484 13.9059C2.41973 12.8877 2.40845 12.5816 2.40845 10.0006C2.40845 7.41959 2.41973 7.11348 2.46484 6.09526C2.58406 3.49331 3.80528 2.25115 6.42817 2.13193C7.44639 2.0852 7.7525 2.07715 10.3335 2.07715ZM5.36969 10.0002C5.36969 7.25806 7.59302 5.03634 10.3335 5.03634C13.074 5.03634 15.2974 7.25967 15.2974 10.0002C15.2974 12.7423 13.074 14.964 10.3335 14.964C7.59302 14.964 5.36969 12.7423 5.36969 10.0002ZM10.3333 13.2228C8.55303 13.2228 7.11108 11.7808 7.11108 10.0005C7.11108 8.22188 8.55303 6.77832 10.3333 6.77832C12.112 6.77832 13.5571 8.22026 13.5571 10.0005C13.5571 11.7808 12.112 13.2228 10.3333 13.2228ZM14.3322 4.84168C14.3322 4.20046 14.8526 3.68168 15.4922 3.68168C16.135 3.68168 16.6538 4.20046 16.6538 4.84168C16.6538 5.4829 16.1334 6.00168 15.4922 6.00168C14.851 6.00168 14.3322 5.48129 14.3322 4.84168Z" fill="white"/>
</svg>
