<svg width="574" height="235" viewBox="0 0 574 235" fill="none" xmlns="http://www.w3.org/2000/svg">
<g clip-path="url(#clip0_230_582)">
<path d="M63.5033 172.522H31.532L27.0063 185.918H0L32.5537 98.5571H63.6489L96.057 185.918H67.881L63.5008 172.522H63.5033ZM38.5402 151.555H56.6432L52.9935 140.489C51.2414 135.101 49.4894 129.714 47.8829 124.474H47.5917C45.8397 129.716 44.2332 135.104 42.3355 140.489L38.5402 151.555Z" fill="white"/>
<path d="M130.508 156.652H122.187V185.918H95.9114V98.5571H136.204C158.684 98.5571 171.24 108.021 171.24 128.259C171.24 140.927 165.547 149.081 155.911 153.157L177.224 185.625V185.916H146.714L130.508 156.649V156.652ZM122.187 121.853V136.268H135.91C142.625 136.268 145.253 133.937 145.253 129.133C145.253 123.89 141.894 121.853 135.471 121.853H122.187Z" fill="white"/>
<path d="M173.137 158.98L198.831 153.738C200.729 161.892 207.737 165.822 215.764 165.822C221.751 165.822 225.546 164.22 225.546 160.58C225.546 156.94 221.896 154.757 207.298 152.716C182.771 149.367 175.326 138.594 175.326 124.179C175.326 106.706 187.443 96.3691 212.26 96.3691C237.078 96.3691 248.318 108.744 251.092 124.033L225.107 129.421C222.918 121.412 219.123 118.065 210.802 118.065C204.524 118.065 201.896 120.393 201.896 123.743C201.896 126.654 203.063 129.13 220.436 131.606C245.838 135.247 252.407 147.041 252.407 159.709C252.407 177.181 240.875 188.101 213.867 188.101C183.647 188.101 175.035 173.541 173.137 158.98Z" fill="white"/>
<path d="M256.345 98.5571H326.126V123.31H282.624V132.047H323.207V151.995H282.624V161.168H326.126V185.921H256.345V98.5596V98.5571Z" fill="white"/>
<path d="M369.187 157.526C366.414 150.391 360.721 135.978 356.777 124.764H356.338C356.777 136.558 357.069 150.245 357.069 157.961V185.916H332.251V98.5547H372.398L381.01 121.85C384.369 130.878 388.746 142.963 391.814 153.009H392.25C391.959 142.963 391.814 133.79 391.814 126.654V98.5522H416.631V185.913H380.428L369.187 157.521V157.526Z" fill="white"/>
<path d="M479.989 172.522H448.017L443.492 185.918H416.485L449.039 98.5571H480.134L512.542 185.918H484.366L479.986 172.522H479.989ZM455.026 151.555H473.129L469.479 140.489C467.727 135.101 465.975 129.714 464.368 124.474H464.077C462.325 129.716 460.719 135.104 458.821 140.489L455.026 151.555Z" fill="white"/>
<path d="M538.673 161.166H574V185.918H512.394V98.5571H538.673V161.166Z" fill="white"/>
<path d="M77.9096 68.3187C76.6067 64.969 73.9317 58.1981 72.081 52.9311H71.8762C72.081 58.4713 72.2192 64.8976 72.2192 68.523V81.6536H60.5643V40.6226H79.4199L83.4644 51.5652C85.0412 55.8058 87.0993 61.4814 88.5379 66.1996H88.7428C88.6046 61.4814 88.5379 57.1718 88.5379 53.8221V40.625H100.193V81.6561H83.188L77.9096 68.3212V68.3187Z" fill="white"/>
<path d="M102.113 61.0014C102.113 48.4861 110.478 39.5962 123.505 39.5962C136.532 39.5962 144.897 48.4861 144.897 61.0014C144.897 73.5168 137.149 82.6799 123.505 82.6799C109.861 82.6799 102.113 73.5168 102.113 61.0014ZM132.623 60.8636C132.623 55.3923 129.743 50.6052 123.505 50.6052C117.267 50.6052 114.387 55.3923 114.387 60.8636C114.387 67.6344 117.198 71.7373 123.505 71.7373C129.812 71.7373 132.623 67.6344 132.623 60.8636Z" fill="white"/>
<path d="M144.621 69.0029L156.688 66.5416C157.579 70.3713 160.871 72.2172 164.641 72.2172C167.452 72.2172 169.236 71.4641 169.236 69.756C169.236 68.0479 167.521 67.0216 160.666 66.0642C149.147 64.4914 145.65 59.4312 145.65 52.6603C145.65 44.4546 151.34 39.5986 162.995 39.5986C174.65 39.5986 179.931 45.412 181.234 52.5914L169.029 55.1216C168 51.3608 166.218 49.7881 162.309 49.7881C159.36 49.7881 158.127 50.8833 158.127 52.4561C158.127 53.8245 158.674 54.9862 166.835 56.1479C178.766 57.8584 181.851 63.3962 181.851 69.345C181.851 77.5507 176.434 82.6799 163.75 82.6799C149.559 82.6799 145.512 75.8401 144.621 69.0029Z" fill="white"/>
<path d="M182.194 69.0029L194.261 66.5416C195.152 70.3713 198.444 72.2172 202.214 72.2172C205.025 72.2172 206.809 71.4641 206.809 69.756C206.809 68.0479 205.094 67.0216 198.239 66.0642C186.72 64.4914 183.223 59.4312 183.223 52.6603C183.223 44.4546 188.913 39.5986 200.568 39.5986C212.223 39.5986 217.504 45.412 218.807 52.5914L206.602 55.1216C205.573 51.3608 203.791 49.7881 199.882 49.7881C196.933 49.7881 195.699 50.8833 195.699 52.4561C195.699 53.8245 196.247 54.9862 204.408 56.1479C216.339 57.8584 219.424 63.3962 219.424 69.345C219.424 77.5507 214.007 82.6799 201.323 82.6799C187.132 82.6799 183.085 75.8401 182.194 69.0029Z" fill="white"/>
<path d="M219.493 61.0014C219.493 48.4861 227.858 39.5962 240.885 39.5962C253.912 39.5962 262.278 48.4861 262.278 61.0014C262.278 73.5168 254.529 82.6799 240.885 82.6799C227.241 82.6799 219.493 73.5168 219.493 61.0014ZM250.003 60.8636C250.003 55.3923 247.124 50.6052 240.885 50.6052C234.647 50.6052 231.767 55.3923 231.767 60.8636C231.767 67.6344 234.578 71.7373 240.885 71.7373C247.193 71.7373 250.003 67.6344 250.003 60.8636Z" fill="white"/>
<path d="M273.313 61.6856C273.313 48.1465 280.237 39.5986 293.881 39.5986C305.331 39.5986 311.091 45.1388 312.325 54.0952L300.736 56.4875C299.981 52.9311 298.404 50.6077 293.674 50.6077C287.845 50.6077 285.72 54.5063 285.72 61.6856C285.72 68.3876 287.845 72.2172 294.017 72.2172C300.189 72.2172 301.422 70.0981 301.422 67.7033V66.8837H293.607V57.3785H313.08V81.656H301.425V72.9039H301.287C300.122 78.3063 296.761 82.4091 289.289 82.4091C279.416 82.4091 273.313 74.0656 273.313 61.6881V61.6856Z" fill="white"/>
<path d="M332.347 67.9101H328.439V81.656H316.098V40.625H335.022C345.582 40.625 351.477 45.07 351.477 54.5752C351.477 60.524 348.802 64.3537 344.279 66.2685L354.29 81.5182V81.656H339.96L332.35 67.9101H332.347ZM328.439 51.5651V58.336H334.884C338.038 58.336 339.272 57.2407 339.272 54.9862C339.272 52.525 337.695 51.5676 334.677 51.5676H328.439V51.5651Z" fill="white"/>
<path d="M382.261 75.3627H367.245L365.121 81.6536H352.437L367.727 40.6226H382.33L397.551 81.6536H384.319L382.261 75.3627ZM370.537 65.5154H379.038L377.323 60.3173C376.502 57.7871 375.677 55.257 374.925 52.7958H374.787C373.965 55.257 373.21 57.7871 372.319 60.3173L370.537 65.5154Z" fill="white"/>
<path d="M414.827 68.3187C413.524 64.969 410.849 58.1981 408.998 52.9311H408.794C408.998 58.4713 409.137 64.8976 409.137 68.523V81.6536H397.482V40.6226H416.337L420.382 51.5652C421.959 55.8058 424.017 61.4814 425.455 66.1996H425.66C425.522 61.4814 425.455 57.1718 425.455 53.8221V40.625H437.11V81.6561H420.106L414.827 68.3212V68.3187Z" fill="white"/>
<path d="M440.128 40.625H458.779C473.588 40.625 479.759 48.2154 479.759 60.524C479.759 72.8326 472.011 81.6536 458.71 81.6536H440.128V40.6226V40.625ZM452.469 50.8834V71.3977H457.543C464.605 71.3977 467.485 67.568 467.485 60.524C467.485 53.48 464.605 50.8809 457.269 50.8809H452.469V50.8834Z" fill="white"/>
<path d="M481.677 40.625H514.45V52.2494H494.017V56.3522H513.078V65.7221H494.017V70.0292H514.45V81.6536H481.677V40.6226V40.625Z" fill="white"/>
<path d="M89.1943 215.374C88.9451 215.374 88.9451 215.214 88.9451 215.214C88.3627 215.775 86.697 217.858 86.1147 218.419C84.866 219.861 81.4557 224.587 80.7055 225.709C80.7055 225.709 80.5402 226.11 78.5414 229.713L78.6253 229.553C78.2082 230.033 75.9626 232.517 75.3803 232.999C73.9663 234.04 73.0508 234.04 71.469 234.04H69.8058C69.6404 233.88 68.3918 232.037 68.224 231.156L68.1401 230.434C68.1401 228.512 69.8058 226.108 70.9705 224.828L82.7043 210.009C82.539 209.849 82.2873 209.768 81.9542 209.608C78.6253 207.525 77.2952 203.76 77.0435 199.354C76.9596 197.432 77.4605 195.428 78.9584 193.747C80.3724 192.066 81.621 190.624 86.6156 190.223C87.5311 189.903 92.3579 190.543 95.7707 191.904C96.5209 191.424 98.0188 189.179 98.268 188.781C98.4333 188.621 100.348 186.617 101.18 185.015C101.762 183.814 103.842 180.289 104.176 179.807C104.842 178.766 108.504 172.197 109.834 169.795C110.332 168.914 111.416 165.79 111.914 164.909C112.914 162.426 115.576 160.103 117.573 160.103C117.99 160.103 119.488 160.344 119.986 160.504C120.319 160.824 122.649 161.946 122.898 163.068V166.433L122.481 168.436C122.064 170.76 121.148 174.043 121.067 174.604C120.317 179.891 115.409 208.328 114.826 213.696C116.489 213.777 119.32 213.454 121.901 212.733C123.234 212.012 125.978 210.09 129.558 205.283L131.555 203.681L132.635 203.521C133.968 203.28 134.716 203.762 135.049 205.603C135.298 206.324 135.133 207.284 135.133 208.087L134.883 209.128C134.217 210.41 131.305 214.574 129.973 215.537C127.226 218.101 124.978 219.462 122.649 220.582C120.485 222.024 114.742 221.382 114.658 221.542C114.493 221.862 114.742 225.628 114.658 226.669C114.574 227.149 115.157 229.632 115.157 231.074C115.241 233.157 114.574 233.799 112.66 234.919C112.66 234.919 112.242 235 111.993 235C110.828 235 109.745 234.52 108.914 233.799C108.415 233.159 106.917 231.955 106.668 231.636C106.584 231.156 106.17 228.512 106.002 226.75C105.918 226.43 105.918 225.95 105.918 225.709L106.251 221.864L106.167 221.143C104.252 221.062 102.256 220.582 100.758 220.102L89.5225 215.455C89.3572 215.455 89.1894 215.374 89.1894 215.374H89.1943ZM87.6965 203.76L91.5238 198.552C91.5238 198.392 89.8581 197.831 88.9451 197.592L86.9488 197.752C85.0338 198.313 85.2016 201.518 87.6965 203.76ZM94.6035 207.924C95.0205 208.485 97.8485 209.686 98.3494 210.088C99.682 210.809 101.513 211.85 105.424 212.891C104.509 210.486 102.179 205.921 100.348 204.08C100.183 203.76 98.9343 202.879 98.4333 202.719L95.6868 206.243C95.4376 206.563 94.6874 207.685 94.606 207.924H94.6035ZM105.089 199.273L105.92 200.233C106.67 201.355 108.001 204.4 108.334 205.519L109.415 200.152C109.832 198.549 111.078 192.221 112.161 183.73L113.16 177.964C110.498 183.169 107.085 189.258 104.173 193.905C103.756 194.626 102.675 195.908 102.426 196.548C103.092 197.511 104.422 198.392 105.089 199.273Z" fill="#022859"/>
<path d="M139.957 226.189L138.792 226.91C136.13 228.111 133.716 229.152 130.637 229.152C125.975 229.233 123.063 225.066 122.814 221.301C122.649 217.776 125.227 210.567 127.392 206.322C129.057 202.477 136.046 190.7 139.291 190.7C141.371 190.619 142.785 191.983 142.869 194.065C142.953 194.786 142.704 195.426 142.37 196.147C139.708 200.553 136.214 205.761 135.046 207.683C133.465 210.407 130.303 215.694 130.469 219.137C130.469 219.617 129.886 221.702 131.55 221.702L132.798 221.461C136.544 220.498 139.456 216.494 142.203 212.81L142.536 212.17C143.617 210.809 146.03 207.444 146.696 206.243L153.186 195.748C154.102 194.146 155.849 191.503 158.178 190.622C161.339 190.54 162.339 192.143 162.507 195.027C162.591 196.548 160.925 198.633 159.676 200.715L155.348 207.203C154.099 209.125 153.268 210.809 152.436 213.292C151.604 216.176 150.272 220.1 151.686 222.103C152.851 223.304 159.01 220.26 161.922 217.538C163.837 215.775 166.749 212.33 169.078 212.251C171.158 212.17 171.659 213.292 171.659 214.734C171.659 215.054 171.575 215.697 171.494 215.935C168.664 222.344 160.009 228.591 151.688 229.553H151.854C151.355 229.634 150.854 229.634 150.521 229.634C147.859 229.634 144.031 227.953 143.449 223.545C142.783 223.787 140.369 225.709 139.955 226.189H139.957Z" fill="#022859"/>
<path d="M190.053 218.5H189.636C188.472 219.622 184.395 223.066 183.312 224.188C180.565 226.671 177.236 228.754 171.494 228.835H170.746C170.497 228.754 168.249 227.634 167.834 227.552C166.754 227.072 164.755 223.548 164.673 221.303C165.34 206.324 180.652 190.944 194.049 190.782C194.88 190.782 196.378 190.462 197.21 191.183C197.543 191.584 198.791 192.145 199.041 192.544C201.286 189.02 201.703 187.577 204.45 182.852L210.192 173.479C211.357 171.557 212.689 169.234 213.686 167.553C214.767 165.471 216.349 163.226 217.598 161.065C218.015 160.265 218.846 159.943 219.429 158.983C220.761 156.819 222.091 155.138 225.336 155.057C227.915 155.057 228.749 157.299 228.914 159.623C229.08 162.827 224.919 165.311 223.088 167.794C219.177 173.162 212.687 184.858 209.106 190.383C205.528 195.99 202.449 201.518 200.035 207.447C199.87 207.927 196.874 212.094 196.79 212.655C196.79 214.417 195.292 220.745 198.537 220.986C201.2 220.986 203.364 217.781 205.528 216.42C207.275 215.138 211.769 210.011 214.182 210.011C216.097 209.93 215.263 211.052 215.347 212.975C214.266 217.7 202.614 229.396 196.538 228.835C194.957 228.835 192.627 227.794 191.379 226.671C190.298 224.99 189.214 222.185 190.048 218.5H190.053ZM176.323 220.823C178.821 219.541 183.314 215.778 184.479 214.816C186.394 212.893 191.47 207.124 192.469 205.362C193.219 204.08 194.715 201.518 195.798 200.317C195.549 199.997 193.55 198.074 193.219 198.074C185.064 198.234 173.828 210.09 172.081 219.221C171.997 220.742 174.828 222.185 176.326 220.823H176.323Z" fill="#022859"/>
<path d="M208.61 223.386C208.61 216.817 212.189 207.685 215.767 201.998C217.348 198.714 218.513 197.671 219.594 195.589C220.344 194.146 223.421 190.863 225.753 190.863C227.5 190.863 228.251 192.785 228.251 195.589C228.251 196.551 228.085 197.511 227.584 198.072L224.172 202.957C220.759 207.843 217.847 213.211 216.766 218.739C215.517 221.862 219.263 223.144 220.843 222.664C226.336 221.623 229.164 216.817 231.079 214.333L234.741 208.727C235.822 207.845 236.572 207.043 238.487 207.043C240.402 207.043 240.318 208.645 240.068 210.248C238.82 218.099 227.17 230.513 219.762 230.513C215.103 230.513 208.61 229.152 208.61 223.383V223.386ZM234.741 162.825C239.234 162.744 242.314 166.349 242.314 170.915C242.314 173.398 239.567 176.841 236.905 176.841C229.83 176.841 228.5 171.555 227.75 169.391C228.831 166.827 230.328 162.903 234.741 162.822V162.825Z" fill="#022859"/>
<path d="M235.821 206.883C236.071 206.642 238.067 204.08 238.235 203.76C238.319 203.6 239.234 202.477 239.234 202.317L245.31 199.034C245.31 198.874 245.727 198.633 245.808 198.554C246.307 198.074 248.555 195.271 250.635 193.349C251.8 192.226 256.461 190.385 259.457 190.545C260.79 190.545 261.537 190.545 262.702 191.746C265.115 193.59 266.946 197.754 267.196 201.2C267.445 203.843 266.697 206.888 266.196 209.13C266.196 209.45 263.948 213.617 263.867 214.016C266.112 214.016 269.693 213.454 271.605 212.573C273.77 211.852 277.098 208.648 277.762 206.885C277.846 206.885 280.01 205.844 280.01 205.844C281.175 205.844 281.925 207.927 282.091 208.729C282.007 213.536 276.348 218.02 271.188 219.704C267.526 220.905 262.366 221.146 260.037 221.306C254.712 227.232 251.299 232.44 239.814 232.359H237.899C234.072 229.876 230.743 227.552 230.494 223.787C229.995 218.419 232.991 211.53 235.819 206.885L235.821 206.883ZM240.648 225.546C245.142 225.546 248.471 222.903 251.05 220.661C250.633 220.1 249.468 220.181 248.885 219.859C244.476 218.338 242.477 216.253 242.228 212.568C242.144 211.687 242.978 210.806 242.894 209.684V209.524C239.898 211.205 236.902 219.297 237.734 223.543C237.818 224.424 239.565 225.546 240.646 225.546H240.648ZM255.378 214.171C259.289 212.65 260.037 204.397 259.788 201.835C259.788 200.954 259.121 199.593 257.873 199.512C255.375 199.512 251.965 201.835 250.633 203.757C249.384 205.601 247.802 209.684 248.718 211.929C249.384 213.531 253.961 214.493 255.375 214.171H255.378Z" fill="#022859"/>
<path d="M276.516 227.631C276.849 226.508 277.765 223.304 277.681 222.905C278.68 217.459 279.761 211.931 280.01 206.243C280.176 205.763 280.176 201.197 280.176 200.715C280.509 199.194 280.593 190.863 284.003 190.781C286.167 190.703 287.581 192.142 287.914 194.227C288.08 195.428 287.581 196.71 287.497 197.993C287.497 203.521 285.834 211.611 285.168 217.619V218.18L285.999 217.54C288.578 215.298 290.826 212.733 293.156 210.41C294.987 208.487 297.067 206.885 298.73 205.123C300.144 203.681 304.887 197.914 305.721 196.792C306.97 195.349 307.384 193.427 309.882 193.348C312.793 193.348 313.294 196.152 313.544 198.155C313.877 200.88 312.13 202.962 312.463 205.684C312.463 205.765 314.96 207.848 316.707 207.848C317.788 207.926 321.45 206.004 321.285 205.765L324.863 204.643C326.778 204.643 327.276 206.004 327.526 207.368C327.609 208.007 327.775 208.889 327.276 209.211C323.614 212.657 320.618 214.498 315.792 215.3C315.626 215.3 312.297 215.059 311.964 214.98C308.719 213.858 305.39 209.772 304.307 209.213L298.316 215.303C296.983 216.102 296.983 217.306 295.154 218.347L287.749 226.597L287.25 227.397L282.673 233.405C282.589 233.806 281.175 233.885 280.593 233.885H280.176C277.93 232.443 276.763 231.483 276.43 229.159C276.264 227.877 276.18 228.918 276.514 227.636L276.516 227.631Z" fill="#022859"/>
<path d="M318.04 223.386C318.04 216.817 321.618 207.685 325.196 201.998C326.778 198.714 327.943 197.671 329.023 195.589C329.774 194.146 332.851 190.863 335.183 190.863C336.93 190.863 337.68 192.785 337.68 195.589C337.68 196.551 337.515 197.511 337.014 198.072L333.601 202.957C330.188 207.843 327.276 213.211 326.195 218.739C324.947 221.862 328.693 223.144 330.272 222.664C335.765 221.623 338.593 216.817 340.508 214.333L344.17 208.727C345.251 207.845 346.001 207.043 347.916 207.043C349.831 207.043 349.747 208.645 349.498 210.248C348.249 218.099 336.599 230.513 329.191 230.513C324.532 230.513 318.04 229.152 318.04 223.383V223.386ZM344.17 162.825C348.664 162.744 351.743 166.349 351.743 170.915C351.743 173.398 348.997 176.841 346.334 176.841C339.259 176.841 337.929 171.555 337.179 169.391C338.26 166.827 339.758 162.903 344.17 162.822V162.825Z" fill="#022859"/>
<path d="M355.489 216.176C357.155 215.856 361.397 216.016 362.729 215.856C363.228 213.533 362.396 205.202 361.649 205.202L359.901 199.915C358.653 201.037 352.328 209.206 350.248 211.852C348.915 213.533 347.003 215.056 345.754 214.975C343.59 214.815 341.843 213.294 342.509 211.931C343.674 209.607 345.838 207.926 347.252 205.923C349.498 202.718 353.493 197.752 357.572 191.584C358.154 189.981 357.989 185.576 361.732 185.495C364.23 185.253 367.307 186.536 367.475 188.94C367.64 191.183 365.229 192.546 365.311 194.628C367.307 200.877 370.387 205.443 370.554 211.131C370.638 213.294 370.471 214.414 370.389 215.056L372.052 214.576C375.964 213.454 378.542 211.613 382.787 206.164C383.036 205.844 383.786 205.684 383.537 205.684C383.038 205.684 386.367 205.204 386.533 206.885C386.533 206.885 387.614 208.007 386.283 210.89C383.954 214.815 381.207 217.057 377.879 219.14C375.048 220.582 373.718 220.983 369.639 221.303C369.804 224.667 365.644 228.433 363.398 229.954C360.568 231.635 357.323 232.036 353.91 232.036C350.083 232.036 345.088 229.954 345.088 226.11C345.088 219.861 348.75 217.377 355.489 216.176ZM355.324 225.95C356.987 225.709 361.066 224.589 361.399 222.344C355.657 221.062 351.914 224.106 352.994 225.549C353.16 225.63 353.994 226.029 355.324 225.95Z" fill="#022859"/>
<path d="M392.852 226.189L391.688 226.91C389.025 228.111 386.612 229.152 383.532 229.152C378.871 229.233 375.959 225.066 375.709 221.301C375.544 217.776 378.123 210.567 380.287 206.322C381.953 202.477 388.941 190.7 392.186 190.7C394.266 190.619 395.68 191.983 395.764 194.065C395.848 194.786 395.599 195.426 395.266 196.147C392.603 200.553 389.109 205.761 387.942 207.683C386.36 210.407 383.199 215.694 383.364 219.137C383.364 219.617 382.782 221.702 384.445 221.702L385.694 221.461C389.44 220.498 392.351 216.494 395.098 212.81L395.431 212.17C396.512 210.809 398.925 207.444 399.592 206.243L406.082 195.748C406.997 194.146 408.744 191.503 411.074 190.622C414.235 190.54 415.234 192.143 415.402 195.027C415.486 196.548 413.82 198.633 412.572 200.715L408.243 207.203C406.995 209.125 406.163 210.809 405.332 213.292C404.5 216.176 403.167 220.1 404.581 222.103C405.746 223.304 411.905 220.26 414.817 217.538C416.732 215.775 419.644 212.33 421.974 212.251C424.054 212.17 424.555 213.292 424.555 214.734C424.555 215.054 424.471 215.697 424.389 215.935C421.559 222.344 412.905 228.591 404.584 229.553H404.749C404.251 229.634 403.75 229.634 403.417 229.634C400.754 229.634 396.927 227.953 396.344 223.545C395.678 223.787 393.265 225.709 392.85 226.189H392.852Z" fill="#022859"/>
<path d="M463.255 223.144C460.926 225.066 454.934 229.553 449.858 229.553C446.613 229.553 442.951 224.586 442.951 222.263C442.951 221.542 443.117 219.698 443.201 219.378C442.369 220.1 441.286 221.141 441.036 221.382C440.952 221.463 440.286 222.103 440.286 222.263C436.126 225.709 432.962 229.152 425.89 229.152C420.73 229.152 418.067 223.624 418.232 217.776C418.398 211.288 423.143 203.518 428.468 198.15C432.878 193.745 439.953 190.7 446.944 190.7C448.94 190.7 451.438 191.34 452.437 192.381C452.437 192.942 454.019 194.303 454.1 194.946C455.514 192.302 457.762 192.381 458.429 192.302C460.176 192.384 460.674 195.347 460.674 196.548C460.674 198.392 456.598 204.318 456.43 204.638C456.013 205.438 454.266 207.601 453.851 208.003C451.771 210.806 449.94 214.092 449.94 217.375C449.94 218.576 450.522 221.219 451.438 221.539C454.683 222.26 459.759 217.934 460.923 216.654C462.421 215.052 466.498 210.326 467.83 209.044C468.329 209.044 468.995 209.925 469.827 209.844H469.911C470.076 210.164 470.076 210.565 470.16 210.885C470.493 215.371 466.083 220.016 463.253 223.142L463.255 223.144ZM449.108 199.433C449.108 198.551 447.943 196.789 446.86 196.789C442.616 196.789 437.123 199.834 433.961 203.358C429.633 208.165 426.304 212.731 426.304 217.296C426.304 219.378 426.971 220.902 428.802 221.382C432.38 220.902 435.876 216.735 438.455 214.574C440.37 212.972 445.53 206.644 448.691 202.317C448.94 201.436 449.108 200.474 449.108 199.433Z" fill="#022859"/>
<path d="M466.582 212.01C470.328 201.675 476.902 184.294 481.561 175.48C485.223 167.55 492.796 154.412 500.034 154.412C502.198 154.412 504.695 157.215 505.611 158.498C506.859 161.382 506.775 162.985 506.692 166.588C506.442 173.076 500.784 184.131 497.704 188.778C493.376 195.347 484.806 203.277 477.815 205.679C477.482 206.159 473.903 214.089 472.655 216.413L472.406 216.974C471.907 218.335 472.739 221.781 475.651 222.101C478.481 221.859 484.056 216.012 485.803 213.851C487.301 212.007 491.962 206.241 493.958 206.56C496.122 206.56 496.537 207.282 496.537 208.323C496.537 208.724 496.621 209.364 495.622 211.527C494.289 215.532 489.132 220.981 486.217 224.183C483.972 226.026 478.644 230.272 473.484 230.272C468.99 230.272 464.581 225.866 464.581 224.264C464.581 223.703 463.83 222.261 463.83 220.498C463.83 218.416 465.661 214.171 466.577 212.007L466.582 212.01ZM492.628 183.573C495.291 179.807 500.285 170.115 500.535 165.869C500.619 163.787 500.202 163.386 499.202 162.825H498.704C497.371 162.743 496.125 163.947 494.876 166.43C492.298 168.995 487.636 179.327 487.636 179.327C485.64 183.253 483.392 187.658 481.978 191.663C481.978 191.744 481.812 192.864 481.728 192.945C480.897 195.027 481.563 193.026 480.648 195.347C484.475 193.585 488.305 189.9 492.631 183.573H492.628Z" fill="#022859"/>
<path d="M346.06 0H228.818C220.602 0 213.941 6.64297 213.941 14.8375C213.941 23.032 220.602 29.675 228.818 29.675H346.06C354.277 29.675 360.938 23.032 360.938 14.8375C360.938 6.64297 354.277 0 346.06 0Z" fill="#022859"/>
<path d="M236.347 14.7106C236.347 10.908 238.832 8.0874 242.689 8.0874C246.03 8.0874 248.236 10.2459 248.752 13.3421L247.617 13.5784C247.168 10.9941 245.453 9.21956 242.669 9.21956C239.434 9.21956 237.529 11.57 237.529 14.7106C237.529 17.8511 239.414 20.2434 242.692 20.2434C245.519 20.2434 247.212 18.3852 247.639 15.7344L248.774 15.9707C248.303 19.1112 246.053 21.3755 242.692 21.3755C238.793 21.3755 236.35 18.491 236.35 14.7106H236.347Z" fill="white"/>
<path d="M249.455 14.7106C249.455 10.9277 251.982 8.0874 255.945 8.0874C259.909 8.0874 262.435 10.9277 262.435 14.7106C262.435 18.4935 259.928 21.3755 255.945 21.3755C251.963 21.3755 249.455 18.491 249.455 14.7106ZM261.236 14.7106C261.236 11.57 259.287 9.21956 255.945 9.21956C252.604 9.21956 250.633 11.57 250.633 14.7106C250.633 17.8511 252.56 20.2434 255.945 20.2434C259.331 20.2434 261.236 17.8732 261.236 14.7106Z" fill="white"/>
<path d="M267.795 13.8763C266.811 12.466 265.846 10.9277 265.073 9.64543H265.031C265.054 10.9917 265.073 12.7441 265.073 14.1962V21.1393H263.894V8.32129H265.458L269.871 14.7525C271.07 16.5049 272.119 18.1268 272.913 19.4091H272.977C272.955 18.1686 272.935 16.6107 272.935 15.2644V8.32129H274.115V21.1393H272.81L267.798 13.8738L267.795 13.8763Z" fill="white"/>
<path d="M285.402 21.1418V15.2865H277.498V21.1418H276.299V8.32373H277.498V14.1568H285.402V8.32373H286.601V21.1418H285.402Z" fill="white"/>
<path d="M288.766 8.32129H297.121V9.45345H289.967V14.0264H296.351V15.1586H289.967V20.0096H297.143V21.1418H288.768V8.32375L288.766 8.32129Z" fill="white"/>
<path d="M304.381 21.3755L304.038 22.3797C304.359 22.1434 304.83 22.0155 305.215 22.0155C305.815 22.0155 306.437 22.2714 306.437 23.0615C306.437 23.7235 305.859 24.3438 304.596 24.3438C303.762 24.3438 303.053 24.1715 302.412 23.8318L302.755 23.1058C303.29 23.3839 303.826 23.5759 304.576 23.5759C305.282 23.5759 305.583 23.3618 305.583 23.0418C305.583 22.7637 305.39 22.5299 304.727 22.5299C304.361 22.5299 304.105 22.616 303.89 22.6578L303.268 22.4019L303.611 21.3116C300.312 20.8636 298.276 18.1489 298.276 14.7106C298.276 10.908 300.761 8.0874 304.618 8.0874C307.959 8.0874 310.165 10.2459 310.681 13.3421L309.546 13.5784C309.097 10.9941 307.382 9.21956 304.598 9.21956C301.363 9.21956 299.458 11.57 299.458 14.7106C299.458 17.8511 301.343 20.2434 304.62 20.2434C307.448 20.2434 309.141 18.3852 309.568 15.7344L310.703 15.9707C310.232 19.1112 307.981 21.3755 304.62 21.3755H304.384H304.381Z" fill="white"/>
<path d="M319.249 16.8888H313.186L311.429 21.1418H310.143L315.626 8.32373H316.848L322.309 21.1418H321.023L319.244 16.8888H319.249ZM313.637 15.8428H318.822L318.245 14.4768C317.581 12.8745 316.766 10.8662 316.253 9.49773H316.189C315.676 10.908 314.884 12.8721 314.198 14.4768L313.64 15.8428H313.637Z" fill="white"/>
<path d="M325.569 14.7106C325.569 10.9277 328.096 8.0874 332.059 8.0874C336.022 8.0874 338.549 10.9277 338.549 14.7106C338.549 18.4935 336.041 21.3755 332.059 21.3755C328.076 21.3755 325.569 18.491 325.569 14.7106ZM337.349 14.7106C337.349 11.57 335.4 9.21956 332.059 9.21956C328.717 9.21956 326.746 11.57 326.746 14.7106C326.746 17.8511 328.673 20.2434 332.059 20.2434C335.444 20.2434 337.349 17.8732 337.349 14.7106Z" fill="white"/>
</g>
<defs>
<clipPath id="clip0_230_582">
<rect width="574" height="235" fill="white"/>
</clipPath>
</defs>
</svg>
