<svg width="777" height="315" viewBox="0 0 777 315" fill="none" xmlns="http://www.w3.org/2000/svg">
<g clip-path="url(#clip0_230_154)">
<path d="M491.419 37.561H285.418C275.07 37.561 266.678 29.1505 266.678 18.7805C266.678 8.41055 275.07 0 285.418 0H491.419C501.767 0 510.16 8.41055 510.16 18.7805C510.16 29.1505 501.767 37.561 491.419 37.561Z" fill="#00C2FF"/>
<path d="M290.036 27.679L282.332 9.58203H284.106L288.016 18.9951C288.951 21.2605 290.121 24.0922 290.816 26.0256H290.939C291.719 24.0336 292.868 21.2605 293.797 18.9951L297.682 9.58203H299.429L291.751 27.679H290.036Z" fill="white"/>
<path d="M300.488 9.58203H312.226V11.1834H302.17V17.6411H311.141V19.2424H302.17V26.0907H312.252V27.692H300.481V9.58203H300.488Z" fill="white"/>
<path d="M318.182 9.58203H319.871V23.3045C319.871 26.0516 318.546 27.9199 315.72 27.9199C314.967 27.9199 314.454 27.8873 313.733 27.7702L313.941 26.2013C314.571 26.325 314.876 26.3511 315.597 26.3511C317.435 26.3511 318.182 25.2053 318.182 23.3045V9.58203Z" fill="white"/>
<path d="M333.63 21.6771H325.114L322.645 27.679H320.84L328.544 9.58203H330.259L337.937 27.679H336.131L333.63 21.6771ZM325.744 20.1994H333.026L332.214 18.266C331.278 16.0071 330.135 13.1689 329.414 11.2355H329.323C328.602 13.2275 327.485 16.0006 326.523 18.266L325.744 20.1994Z" fill="white"/>
<path d="M354.279 21.6771H345.763L343.295 27.679H341.489L349.193 9.58203H350.908L358.586 27.679H356.78L354.279 21.6771ZM346.394 20.1994H353.675L352.863 18.266C351.928 16.0071 350.785 13.1689 350.064 11.2355H349.973C349.252 13.2275 348.134 16.0006 347.173 18.266L346.394 20.1994Z" fill="white"/>
<path d="M361.328 26.0776H370.24V27.679H359.645V9.58203H361.328V26.0776Z" fill="white"/>
<path d="M368.94 18.8389C368.94 13.5595 371.98 9.27612 377.853 9.27612C382.608 9.27612 385.498 12.199 386.252 16.5735L384.686 16.9055C383.842 12.8955 381.438 10.845 377.82 10.845C372.883 10.845 370.623 14.4058 370.623 18.8389C370.623 22.914 372.909 26.4422 378.21 26.4422C383.114 26.4422 384.621 23.936 384.621 21.1629V20.3166H377.606V18.7803H386.213V27.6791H384.615V23.2134H384.582C383.887 25.8694 381.666 27.9785 377.931 27.9785C372.221 27.9785 368.94 24.0597 368.94 18.8389Z" fill="white"/>
<path d="M401.394 20.8308V9.58203H403.076V20.922C403.076 25.4137 400.757 27.9785 396.184 27.9785C391.611 27.9785 388.902 25.4137 388.902 20.922V9.58203H390.585V20.6551C390.585 24.0336 392.092 26.3836 396.184 26.3836C400.25 26.3836 401.394 24.001 401.394 20.8308Z" fill="white"/>
<path d="M407.805 27.679H406.148V9.58203H408.649L412.956 19.5679C413.56 21.0131 414.794 23.8839 415.541 25.8693H415.6C416.353 23.9099 417.464 21.1303 418.185 19.5354L422.518 9.58203H424.928V27.679H423.239V17.7843C423.239 15.8248 423.297 12.9866 423.33 11.0858H423.297C422.518 13.1689 421.251 16.3066 420.257 18.624L416.282 27.6725H414.684L410.741 18.5329C409.689 16.0266 408.571 13.1949 407.792 11.0793H407.733C407.792 13.0127 407.792 15.7858 407.792 17.7778V27.679H407.805Z" fill="white"/>
<path d="M438.783 21.6771H430.267L427.799 27.679H425.993L433.697 9.58203H435.412L443.09 27.679H441.284L438.783 21.6771ZM430.897 20.1994H438.179L437.367 18.266C436.432 16.0071 435.289 13.1689 434.568 11.2355H434.477C433.756 13.2275 432.638 16.0006 431.677 18.266L430.897 20.1994Z" fill="white"/>
<path d="M442.635 21.2865L444.259 20.987C444.798 24.333 446.819 26.4487 450.547 26.4487C453.795 26.4487 455.393 25.0621 455.393 23.0115C455.393 20.9284 454.035 19.9064 450.307 19.2684C445.37 18.3961 443.746 16.5864 443.746 14.0477C443.746 11.2094 445.974 9.25 449.735 9.25C453.977 9.25 455.757 11.8148 456.536 15.252L454.88 15.5514C454.25 12.5374 452.951 10.7863 449.67 10.7863C447.052 10.7863 445.428 12.0557 445.428 13.9826C445.428 15.7597 446.455 16.938 450.755 17.7256C455.724 18.6305 457.075 20.4402 457.075 22.9139C457.075 25.9018 454.971 28.011 450.482 28.011C445.675 27.9524 443.122 25.2379 442.635 21.2865Z" fill="white"/>
<path d="M463.863 9.58203H470.424C476.413 9.58203 479.602 13.1689 479.602 18.5719C479.602 23.9685 476.322 27.679 470.573 27.679H463.863V9.58203ZM465.545 11.0597V26.2013H470.424C475.633 26.2013 477.92 23.2134 477.92 18.5719C477.92 13.9305 475.419 11.0597 470.183 11.0597H465.545Z" fill="white"/>
<path d="M481.681 9.58203H493.419V11.1834H483.37V17.6411H492.341V19.2424H483.37V26.0907H493.452V27.692H481.681V9.58203Z" fill="white"/>
<path d="M179.01 116.53C176.269 109.454 170.65 95.1518 166.759 84.0332H166.324C166.759 95.7312 167.045 109.31 167.045 116.966V144.697H142.543V58.0334H182.18L190.683 81.1429C193.996 90.1003 198.322 102.085 201.349 112.051H201.785C201.499 102.085 201.349 92.9841 201.349 85.908V58.0334H225.852V144.697H190.105L179.01 116.53Z" fill="white"/>
<path d="M229.885 101.076C229.885 74.6467 247.469 55.8662 274.856 55.8662C302.671 55.8662 319.826 74.6402 319.826 101.076C319.826 127.506 303.541 146.859 274.856 146.859C246.17 146.859 229.885 127.506 229.885 101.076ZM294.018 100.783C294.018 89.2285 287.964 79.1189 274.849 79.1189C261.734 79.1189 255.68 89.2285 255.68 100.783C255.68 115.085 261.591 123.749 274.849 123.749C288.107 123.749 294.018 115.085 294.018 100.783Z" fill="white"/>
<path d="M319.242 117.975L344.608 112.774C346.479 120.866 353.397 124.765 361.328 124.765C367.239 124.765 370.987 123.177 370.987 119.564C370.987 115.808 367.382 113.79 352.974 111.765C328.758 108.445 321.411 97.7562 321.411 83.4544C321.411 66.1255 333.377 55.8662 357.872 55.8662C383.238 55.8662 393.469 68.1435 396.21 83.3111L370.559 88.6556C368.395 80.7138 364.647 77.3873 356.437 77.3873C350.24 77.3873 347.648 79.6983 347.648 83.0182C347.648 85.9085 348.798 88.3627 365.953 90.8168C391.033 94.4297 397.516 106.128 397.516 118.691C397.516 136.027 386.129 146.859 359.464 146.859C329.615 146.859 321.113 132.414 319.242 117.975Z" fill="white"/>
<path d="M398.218 117.975L423.584 112.774C425.454 120.866 432.372 124.765 440.304 124.765C446.215 124.765 449.963 123.177 449.963 119.564C449.963 115.808 446.358 113.79 431.95 111.765C407.734 108.445 400.387 97.7562 400.387 83.4544C400.387 66.1255 412.352 55.8662 436.848 55.8662C462.214 55.8662 472.445 68.1435 475.186 83.3111L449.534 88.6556C447.371 80.7138 443.623 77.3873 435.412 77.3873C429.215 77.3873 426.624 79.6983 426.624 83.0182C426.624 85.9085 427.773 88.3627 444.929 90.8168C470.009 94.4297 476.492 106.128 476.492 118.691C476.492 136.027 465.105 146.859 438.439 146.859C408.598 146.859 400.095 132.414 398.218 117.975Z" fill="white"/>
<path d="M533.408 131.405H501.845L497.376 144.691H470.711L502.852 58.0276H533.551L565.549 144.691H537.734L533.408 131.405ZM508.763 110.607H526.633L523.028 99.6311C521.3 94.2867 519.572 88.9422 517.981 83.7409H517.695C515.967 88.9422 514.382 94.2867 512.505 99.6311L508.763 110.607Z" fill="white"/>
<path d="M558.488 117.975L583.854 112.774C585.725 120.866 592.643 124.765 600.575 124.765C606.486 124.765 610.234 123.177 610.234 119.564C610.234 115.808 606.629 113.79 592.221 111.765C568.005 108.445 560.658 97.7562 560.658 83.4544C560.658 66.1255 572.623 55.8662 597.119 55.8662C622.485 55.8662 632.716 68.1435 635.457 83.3111L609.805 88.6556C607.642 80.7138 603.894 77.3873 595.683 77.3873C589.486 77.3873 586.894 79.6983 586.894 83.0182C586.894 85.9085 588.044 88.3627 605.2 90.8168C630.28 94.4297 636.763 106.128 636.763 118.691C636.763 136.027 625.376 146.859 598.71 146.859C568.862 146.859 560.359 132.414 558.488 117.975Z" fill="white"/>
<path d="M0.00582886 207.946C0.00582886 180.501 18.1681 162.736 44.3981 162.736C68.0363 162.736 83.3144 177.181 85.4775 200.291L60.3973 204.333C58.6694 192.199 53.908 185.989 43.5342 185.989C31.426 185.989 25.8071 196.098 25.8071 207.939C25.8071 222.092 31.5689 230.619 43.82 230.619C54.2003 230.619 58.2342 224.116 60.5402 211.552L85.1852 215.016C83.165 237.839 67.1724 253.722 43.9629 253.722C17.0118 253.729 0.00582886 235.384 0.00582886 207.946Z" fill="white"/>
<path d="M138.509 238.275H106.946L102.477 251.561H75.8117L107.953 164.904H138.652L170.65 251.561H142.835L138.509 238.275ZM113.864 217.476H131.734L128.129 206.501C126.401 201.157 124.673 195.812 123.082 190.611H122.796C121.068 195.812 119.483 201.157 117.606 206.501L113.864 217.476Z" fill="white"/>
<path d="M195.01 251.561H170.508V164.904H212.016L220.084 193.937C221.668 199.425 223.974 210.257 225.995 221.382H226.28C228.301 210.114 230.607 198.995 232.335 192.785L239.831 164.904H277.591V251.561H251.647V219.787C251.647 208.812 252.225 196.535 252.653 185.846H252.368C249.483 197.98 246.028 212.132 241.844 227.007L234.926 251.561H211.723L205.091 226.284C201.057 210.544 197.887 197.544 195.003 185.846H194.717C195.003 196.535 195.003 208.812 195.003 219.787V251.561H195.01Z" fill="white"/>
<path d="M309.875 230.04V251.561H283.931V164.904H319.528C344.173 164.904 355.703 176.172 355.703 197.401C355.703 215.022 343.166 230.04 320.535 230.04H309.875ZM309.875 188.014V206.937H317.657C324.861 206.937 328.752 203.761 328.752 197.407C328.752 191.197 324.861 188.02 317.365 188.02H309.875V188.014Z" fill="white"/>
<path d="M408.741 238.275H377.178L372.709 251.561H346.05L378.191 164.904H408.89L440.888 251.561H413.073L408.741 238.275ZM384.096 217.476H401.966L398.36 206.501C396.633 201.157 394.905 195.812 393.313 190.611H393.027C391.3 195.812 389.715 201.157 387.837 206.501L384.096 217.476Z" fill="white"/>
<path d="M477.2 223.4C474.459 216.324 468.84 202.022 464.949 190.904H464.514C464.949 202.602 465.235 216.181 465.235 223.836V251.568H440.733V164.904H480.37L488.873 188.014C492.186 196.971 496.512 208.955 499.539 218.922H499.968C499.682 208.955 499.539 199.855 499.539 192.779V164.904H524.041V251.561H488.302L477.2 223.4Z" fill="white"/>
<path d="M585.147 251.561V220.217H556.325V251.561H530.381V164.904H556.325V195.669H585.147V164.904H611.091V251.561H585.147Z" fill="white"/>
<path d="M673.64 238.275H642.077L637.607 251.561H610.942L643.09 164.904H673.789L705.787 251.561H677.972L673.64 238.275ZM648.995 217.476H666.865L663.259 206.501C661.531 201.157 659.804 195.812 658.212 190.611H657.926C656.198 195.812 654.613 201.157 652.736 206.501L648.995 217.476Z" fill="white"/>
<path d="M698.72 224.845L724.086 219.644C725.957 227.736 732.875 231.635 740.806 231.635C746.717 231.635 750.465 230.047 750.465 226.434C750.465 222.678 746.86 220.66 732.452 218.635C708.243 215.315 700.889 204.626 700.889 190.324C700.889 172.989 712.855 162.736 737.35 162.736C762.716 162.736 772.947 175.014 775.688 190.181L750.037 195.526C747.873 187.584 744.125 184.257 735.915 184.257C729.718 184.257 727.126 186.568 727.126 189.888C727.126 192.779 728.276 195.233 745.431 197.687C770.511 201.3 776.994 212.998 776.994 225.562C776.994 242.897 765.607 253.729 738.948 253.729C709.1 253.729 700.597 239.284 698.72 224.845Z" fill="white"/>
<path d="M154.788 283.328C155.49 282.195 155.918 280.366 156.458 279.292C156.945 277.893 157.374 277.085 158.017 275.523C158.881 273.531 159.472 271.005 158.283 271.168C157.477 271.279 155.535 273.264 154.944 274.071C153.918 275.36 153.651 275.041 150.15 280.744L149.072 282.84C148.858 283.217 148.533 283.27 146.162 287.358C145.356 288.113 144.44 291.179 142.609 291.179C141.154 291.179 140.348 289.994 140.075 288.595C140.342 286.765 141.53 285.047 142.284 283.322C143.089 282.033 143.524 279.826 144.22 278.908C145.512 276.272 148.474 269.651 146.376 269.332C145.298 269.547 141.959 274.553 141.797 274.553C140.342 276.434 137.594 281.545 135.658 281.545C135.015 281.545 134.365 280.789 134.261 279.39C134.261 279.175 134.801 277.131 135.983 275.569L139.322 270.511C141.257 267.549 144.869 264.164 148.37 264.164C150.793 264.164 151.547 266.318 151.547 268.414C151.495 268.525 150.741 272.613 150.793 272.665L152.086 270.999L155.425 267.451C156.88 266.481 158.601 264.548 160.595 264.548C162.856 264.548 164.954 266.488 164.798 268.961L164.584 270.465L164.259 271.435L164.584 271.005L167.923 267.457C169.378 266.488 171.099 264.554 173.093 264.554C175.354 264.554 177.452 266.494 177.296 268.968L177.082 270.471C175.9 273.804 174.496 277.522 172.879 281.929C172.554 282.846 172.554 285.262 173.633 285.372C175.029 285.262 178.316 281.551 179.121 279.832C179.232 279.618 181.921 275.152 183.376 275.1C184.779 275.1 185.533 275.425 185.533 276.122C185.533 276.389 185.37 276.662 185.318 276.929L184.942 278.277C184.078 280.965 181.278 284.624 179.394 286.778C177.939 288.015 174.977 290.866 172.236 290.866C169.865 290.866 167.981 287.904 167.981 286.83C167.981 286.505 167.819 286.023 167.819 285.756L167.871 284.305C167.871 283.393 168.033 282.209 168.358 281.239L168.897 279.572C169.384 278.01 169.813 277.203 170.515 275.536C171.378 273.544 171.97 271.018 170.781 271.181C169.975 271.292 168.033 273.277 167.442 274.084C166.416 275.373 166.149 275.054 162.648 280.757L161.141 282.964C160.875 283.341 161.031 283.289 158.666 287.377C157.861 288.132 156.945 291.198 155.113 291.198C153.658 291.198 152.852 290.014 152.58 288.614C152.852 286.772 154.035 285.047 154.788 283.328Z" fill="#00C2FF"/>
<path d="M209.177 286.069C207.67 287.358 203.792 290.372 200.505 290.372C198.407 290.372 196.036 287.039 196.036 285.477C196.036 284.995 196.147 283.758 196.199 283.537C195.66 284.018 194.958 284.721 194.796 284.884C194.744 284.936 194.308 285.366 194.308 285.477C191.619 287.787 189.573 290.105 184.993 290.105C181.655 290.105 179.933 286.394 180.037 282.463C180.148 278.108 183.214 272.887 186.663 269.28C189.515 266.318 194.094 264.274 198.615 264.274C199.908 264.274 201.525 264.704 202.168 265.407C202.168 265.785 203.188 266.696 203.247 267.126C204.163 265.349 205.618 265.407 206.046 265.348C207.177 265.401 207.501 267.393 207.501 268.2C207.501 269.437 204.864 273.421 204.754 273.635C204.487 274.176 203.351 275.627 203.084 275.894C201.74 277.776 200.551 279.982 200.551 282.189C200.551 282.996 200.928 284.773 201.519 284.988C203.617 285.47 206.904 282.567 207.657 281.707C208.625 280.633 211.262 277.457 212.126 276.597C212.451 276.597 212.88 277.19 213.419 277.138H213.471C213.581 277.352 213.581 277.619 213.633 277.834C213.861 280.855 211.003 283.973 209.177 286.069ZM200.025 270.146C200.025 269.554 199.271 268.369 198.57 268.369C195.822 268.369 192.269 270.413 190.223 272.783C187.423 276.011 185.266 279.077 185.266 282.144C185.266 283.543 185.695 284.565 186.884 284.884C189.196 284.559 191.463 281.766 193.133 280.314C194.373 279.24 197.712 274.989 199.758 272.08C199.914 271.487 200.025 270.843 200.025 270.146Z" fill="#00C2FF"/>
<path d="M219.46 282.736C221.019 279.559 223.929 274.716 226.729 271.435L226.677 271.006C225.924 271.058 224.897 271.331 224.144 271.331C223.124 271.383 221.883 270.576 221.13 270.309C220.805 270.257 216.771 277.086 216.011 278.056C215.206 279.618 212.672 282.092 210.84 282.469C209.873 282.684 207.664 282.684 207.664 281.232C209.6 279.351 211.971 275.855 213.803 272.783C214.179 272.086 217.089 267.939 217.031 267.132C216.979 266.592 216.329 266.221 216.277 265.414C216.115 262.829 217.895 260.408 219.188 258.852C220.051 257.83 222.15 256.86 223.709 256.808C225.053 256.808 227.047 257.504 227.099 258.748C227.21 260.414 225.859 262.999 224.728 264.561L223.865 265.798C224.131 265.961 225.157 266.768 225.586 266.768C227.47 266.716 229.678 265.798 230.861 264.457H230.809C231.672 263.272 232.316 263.005 233.771 262.953C235.55 262.953 236.246 264.242 236.304 265.049C236.304 265.212 236.09 265.804 235.817 266.234L235.602 266.716L230.867 272.9C230.705 273.115 230.113 273.974 229.789 274.247V274.195C228.444 275.81 226.612 279.039 225.482 281.297L224.352 283.608C223.813 284.793 223.865 285.49 224.189 285.919C225.105 286.993 227.905 285.06 230.815 282.313C232.972 280.269 235.395 276.5 236.148 275.966C236.739 276.077 238.305 275.803 238.785 276.291L239 276.617C238.246 281.564 234.368 285.652 230.386 288.51C227.853 290.339 224.891 291.147 221.825 290.932C220.266 290.665 218.596 288.185 218.596 287.918C218.596 285.535 219.084 285.32 219.46 282.736Z" fill="#00C2FF"/>
<path d="M232.329 285.32L233.407 282.736C236.531 272.998 241.806 259.496 244.554 254.061C246.925 248.736 251.823 239.909 256.506 239.909C257.909 239.909 259.52 241.79 260.111 242.656C260.917 244.596 260.865 245.67 260.813 248.091C260.65 252.446 258.175 257.4 256.181 260.518C253.706 264.392 247.782 269.398 243.261 271.709C242.67 272.998 242.079 274.345 242.131 274.345C245.041 272.405 248.971 270.797 251.985 269.339C252.79 268.747 258.013 266.221 258.987 266.273C259.955 266.325 262.437 266.813 262.755 269.124C262.645 271.064 262.053 272.405 260.709 272.783C259.845 272.945 259.416 272.138 258.611 272.405C255.538 273.479 248.542 276.604 247.516 277.73C247.516 280.477 248.003 283.218 248.912 286.395C248.964 286.772 250.316 287.254 250.419 287.254C252.466 287.143 255.155 285.372 257.74 283.166C260.111 281.174 261.885 279.026 262.852 277.678C263.768 276.389 264.411 275.094 265.542 275.152C265.866 275.1 266.886 275.693 266.886 276.012C266.886 278.485 265.594 281.174 263.924 283.491C261.826 286.395 258.812 288.549 256.87 289.734C255.902 290.326 252.667 291.941 251.27 291.993C248.419 291.993 244.969 290.808 244.216 287.742C243.352 286.128 242.657 283.062 243.138 280.803C243.086 280.803 242.813 280.64 242.761 280.692C242.599 280.744 242.111 280.959 242.007 281.07C240.877 281.929 239.156 283.491 237.59 286.128C237.162 286.883 237.538 286.29 237.051 287.364C236.999 288.549 236.35 290.216 235.706 291.127C235.706 291.127 234.791 291.29 234.68 291.29C233.336 291.401 231.127 291.075 230.802 289.89C230.445 288.439 231.686 286.557 232.329 285.32ZM252.414 258.09C254.135 255.565 256.668 250.448 256.831 247.597C256.883 246.197 256.616 245.93 255.967 245.553H255.642C254.778 245.501 253.973 246.308 253.167 247.974C251.498 249.699 248.484 256.639 248.484 256.639C247.191 259.275 246.438 260.837 245.522 263.526C245.522 263.578 245.411 264.333 245.359 264.385C244.82 265.785 245.522 263.63 244.931 265.192C247.405 264.014 249.614 262.341 252.414 258.09Z" fill="#00C2FF"/>
<path d="M262.002 283.491C262.541 276.715 264.373 272.034 269.758 266.325C272.505 263.578 276.923 262.022 281.008 262.126C283.97 262.178 284.886 266.481 284.614 268.154C284.237 271.058 283.321 273.102 281.385 275.582C279.664 277.841 273.363 282.358 268.783 282.358H267.166C266.575 283.38 267.166 286.128 268.946 286.609C270.992 286.72 272.986 286.609 275.89 284.78C279.229 282.788 283.321 278.003 285.478 277.789C286.341 277.789 286.608 278.648 286.556 279.188C286.393 281.825 281.82 286.342 276.812 289.09C273.584 290.867 270.245 291.134 267.822 291.134C265.88 291.075 261.566 287.794 262.002 283.491ZM278.209 272.028C279.235 270.791 280.041 268.258 278.858 267.184C276.702 266.488 272.934 269.014 271.375 271.383C270.031 273.323 268.465 275.738 268.088 278.108H268.14C271.797 277.626 276.806 274.397 278.209 272.028Z" fill="#00C2FF"/>
<path d="M288.277 270.465C288.868 269.066 291.35 264.6 292.421 263.201L288.816 263.149H288.927C289.089 263.149 285.698 262.504 285.477 261.157C285.529 260.135 286.822 259.002 287.147 258.468C287.472 258.631 287.686 257.986 289.998 258.038H292.909C294.039 258.038 295.221 257.986 295.76 256.906L297.754 254.054C298.183 253.358 299.372 251.255 299.911 250.448C301.47 248.293 302.548 246.627 304.003 245.338L305.348 244.153C305.725 243.776 306.589 243.294 307.069 243.294C307.609 243.294 309.005 245.286 309.005 246.36C309.005 247.864 307.446 249.049 306.472 250.129C305.556 251.203 300.82 257.557 300.82 257.772L305.075 257.934C305.829 257.719 308.68 257.824 310.512 257.824C311.428 258.09 312.773 259.008 312.773 259.868C312.773 261.371 311.214 262.504 309.219 262.83C306.095 263.37 300.983 262.667 298.021 263.311C296.676 264.763 291.018 275.419 289.784 278.59C288.063 282.085 288.063 282.515 288.011 284.618C288.011 284.995 288.173 285.854 289.466 285.854C289.894 285.854 290.758 285.744 292.805 284.67C294.364 284.188 300.34 279.019 300.937 278.212L301.262 277.73C301.853 277.249 302.555 276.546 303.146 276.546C303.575 276.546 304.601 276.116 304.978 276.383C305.406 276.708 305.302 277.62 305.302 278.264C305.251 279.612 301.801 283.589 300.509 284.937C297.495 288.484 291.999 291.179 288.121 291.179C284.945 291.179 282.359 288.432 282.411 285.581C282.463 281.011 286.341 274.339 288.277 270.465Z" fill="#00C2FF"/>
<path d="M299.476 286.232C299.476 281.819 301.789 275.687 304.108 271.865C305.134 269.659 305.888 268.962 306.583 267.562C307.07 266.593 309.058 264.386 310.565 264.386C311.695 264.386 312.182 265.675 312.182 267.562C312.182 268.207 312.072 268.851 311.753 269.229L309.545 272.51C307.336 275.791 305.452 279.397 304.751 283.108C303.945 285.204 306.368 286.07 307.388 285.744C310.941 285.048 312.773 281.819 314.014 280.146L316.385 276.377C317.086 275.784 317.567 275.244 318.808 275.244C320.1 275.244 319.99 276.318 319.834 277.399C319.029 282.672 311.487 291.01 306.693 291.01C303.679 291.023 299.476 290.106 299.476 286.232ZM316.385 245.56C319.295 245.508 321.283 247.929 321.283 250.995C321.283 252.662 319.503 254.979 317.781 254.979C313.202 254.979 312.344 251.431 311.857 249.973C312.565 248.248 313.533 245.612 316.385 245.56Z" fill="#00C2FF"/>
<path d="M322.899 283.328C323.705 282.039 324.14 279.833 324.835 278.915C326.128 276.278 329.09 269.658 326.992 269.339C325.914 269.554 323.328 272.62 322.737 273.857C321.444 275.797 318.534 280.581 317.027 281.551C315.949 282.248 315.735 282.358 315.092 282.033C314.5 281.766 314.39 280.685 314.286 279.286C314.286 279.071 316.222 276.22 317.138 274.872C317.943 273.687 318.859 272.236 319.937 270.517C321.873 267.451 325.485 264.17 328.986 264.17C331.409 264.17 332.162 266.325 332.162 268.421C332.111 268.532 331.357 272.62 331.409 272.672L332.702 271.005L336.04 267.458C337.496 266.488 339.217 264.554 341.211 264.554C343.472 264.554 345.57 266.494 345.414 268.968L345.2 270.472C344.017 273.805 342.614 277.522 340.997 281.929C340.672 282.847 340.672 285.262 341.75 285.372C343.153 285.262 346.811 281.447 347.622 279.833C347.733 279.618 350.208 275.478 351.715 275.1C353.118 275.1 353.761 275.64 353.761 276.337C353.761 276.604 353.599 276.877 353.547 277.144L353.17 278.492C352.416 281.239 349.402 284.624 347.519 286.778C346.063 288.015 343.101 290.866 340.36 290.866C337.989 290.866 336.105 287.905 336.105 286.83C336.105 286.505 336.216 286.023 336.216 285.756L336.164 284.305C336.112 283.393 336.164 282.209 336.489 281.239L337.028 279.572C337.515 278.01 337.944 277.203 338.645 275.536C339.509 273.544 340.1 271.018 338.912 271.181C338.106 271.292 336.164 273.277 335.573 274.084C334.553 275.373 334.28 275.054 330.779 280.757L329.701 282.853C329.486 283.231 329.161 283.283 326.79 287.371C325.985 288.126 325.069 291.192 323.237 291.192C321.782 291.192 320.977 290.007 320.704 288.608C320.964 286.772 322.146 285.047 322.899 283.328Z" fill="#00C2FF"/>
<path d="M346.057 298.985C348.37 296.993 353.865 296.023 357.204 295.808C358.334 294.89 358.445 293.438 358.873 292.097C359.575 290.808 360.114 289.194 360.543 287.957C360.491 287.742 360.38 287.632 360.166 287.475C358.821 288.016 357.314 288.823 355.482 288.875C351.28 288.986 349.558 286.616 349.019 282.098L348.967 281.617C349.078 281.291 349.558 276.936 349.721 276.611C351.013 274.078 351.715 271.663 353.975 269.671C354.891 268.597 358.282 266.124 358.445 266.124C360.328 265.264 362.271 264.672 364.258 264.346C366.733 264.294 370.826 263.969 372.553 266.553C372.553 266.879 372.878 268.545 372.93 268.923C373.145 270.967 373.957 272.152 372.82 273.929C371.365 276.083 368.565 279.898 367.597 282.482C366.194 285.763 365.337 289.532 363.992 292.865C363.94 293.191 362.914 295.391 362.271 297.168C365.447 297.65 372.014 302.871 372.989 303.626C373.151 305.24 373.794 307.174 371.806 307.232C368.682 307.343 364.161 302.389 360.932 301.959L360.289 303.574C357.165 308.632 353.235 313.957 347.798 314.979C346.992 315.031 345.914 314.816 345.109 314.549C343.063 313.15 341.555 310.839 341.231 308.521C340.672 304.635 342.933 301.243 346.057 298.985ZM347.239 309.634C350.578 309.472 352.41 305.813 353.644 303.821C354.021 303.229 354.885 301.777 354.885 301.725L354.833 301.348C350.474 301.614 347.077 302.962 345.622 307.102C345.518 308.02 346.167 309.96 347.239 309.634ZM354.352 283.329C355.158 283.973 356.613 283.758 357.581 283.381C361.939 281.552 364.258 277.463 366.792 273.161C367.708 271.761 368.461 270.199 367.974 269.177C360.868 267.777 355.054 274.072 353.865 280.959C353.755 281.604 353.865 282.469 354.352 283.329Z" fill="#00C2FF"/>
<path d="M414.12 282.951H413.854C413.1 283.706 410.463 286.017 409.761 286.772C407.981 288.438 405.831 289.838 402.116 289.89H401.628C401.466 289.838 400.011 289.083 399.745 289.031C399.043 288.705 397.75 286.342 397.698 284.832C398.127 274.768 408.04 264.444 416.705 264.333C417.244 264.333 418.212 264.118 418.751 264.6C418.966 264.867 419.778 265.244 419.934 265.518C421.389 263.148 421.655 262.185 423.435 259.008L427.15 252.713C427.904 251.424 428.768 249.862 429.411 248.729C430.112 247.33 431.132 245.826 431.944 244.374C432.211 243.834 432.75 243.619 433.127 242.975C433.99 241.523 434.848 240.39 436.953 240.338C438.622 240.338 439.161 241.842 439.265 243.404C439.376 245.559 436.68 247.225 435.497 248.892C432.964 252.498 428.768 260.349 426.449 264.066C424.136 267.835 422.142 271.546 420.577 275.523C420.466 275.849 418.53 278.641 418.479 279.019C418.479 280.204 417.511 284.454 419.609 284.617C421.33 284.617 422.733 282.462 424.13 281.551C425.26 280.692 428.17 277.248 429.729 277.248C430.97 277.196 430.431 277.945 430.483 279.24C429.781 282.417 422.246 290.268 418.316 289.89C417.29 289.89 415.783 289.194 414.977 288.438C414.282 287.306 413.581 285.424 414.12 282.951ZM405.234 284.513C406.851 283.654 409.755 281.121 410.508 280.477C411.749 279.188 415.029 275.315 415.679 274.13C416.166 273.271 417.134 271.546 417.835 270.738C417.673 270.524 416.38 269.235 416.166 269.235C410.891 269.345 403.623 277.307 402.492 283.439C402.434 284.454 404.266 285.424 405.234 284.513Z" fill="#00C2FF"/>
<path d="M426.183 283.491C426.722 276.715 428.554 272.034 433.939 266.325C436.687 263.578 441.104 262.022 445.19 262.126C448.152 262.178 449.068 266.481 448.795 268.154C448.418 271.058 447.502 273.102 445.566 275.582C443.845 277.841 437.544 282.358 432.964 282.358H431.347C430.756 283.38 431.347 286.128 433.127 286.609C435.173 286.72 437.167 286.609 440.071 284.78C443.41 282.788 447.502 278.003 449.659 277.789C450.523 277.789 450.789 278.648 450.737 279.188C450.575 281.825 446.001 286.342 440.993 289.09C437.765 290.867 434.426 291.134 432.003 291.134C430.061 291.075 425.754 287.794 426.183 283.491ZM442.39 272.028C443.416 270.791 444.222 268.258 443.039 267.184C440.883 266.488 437.115 269.014 435.556 271.383C434.212 273.323 432.646 275.738 432.269 278.108H432.321C435.985 277.626 440.987 274.397 442.39 272.028Z" fill="#00C2FF"/>
<path d="M475.668 289.083C475.882 288.328 476.473 286.18 476.422 285.906C477.071 282.248 477.766 278.537 477.929 274.716C478.039 274.391 478.039 271.325 478.039 271.006C478.253 269.984 478.305 264.385 480.514 264.333C481.917 264.281 482.826 265.251 483.047 266.644C483.158 267.451 482.833 268.311 482.781 269.17C482.781 272.881 481.703 278.316 481.274 282.352V282.73L481.813 282.3C483.482 280.796 484.938 279.071 486.445 277.509C487.627 276.22 488.978 275.139 490.05 273.961C490.966 272.991 494.032 269.118 494.571 268.363C495.376 267.393 495.649 266.104 497.26 266.052C499.144 266.052 499.469 267.933 499.631 269.281C499.845 271.11 498.715 272.509 498.929 274.339C498.929 274.391 500.547 275.79 501.677 275.79C502.379 275.842 504.75 274.554 504.639 274.391L506.952 273.636C508.192 273.636 508.511 274.547 508.673 275.465C508.725 275.895 508.836 276.487 508.511 276.702C506.14 279.013 504.204 280.25 501.08 280.79C500.969 280.79 498.819 280.627 498.605 280.575C496.507 279.82 494.35 277.079 493.648 276.702L489.77 280.79C488.906 281.33 488.906 282.137 487.724 282.834L482.93 288.374L482.606 288.914L479.643 292.95C479.591 293.217 478.676 293.275 478.299 293.275H478.032C476.577 292.306 475.824 291.661 475.61 290.099C475.506 289.246 475.454 289.943 475.668 289.083Z" fill="#00C2FF"/>
<path d="M502.593 283.491C503.132 276.715 504.964 272.034 510.349 266.325C513.097 263.578 517.514 262.022 521.6 262.126C524.562 262.178 525.478 266.481 525.205 268.154C524.828 271.058 523.912 273.102 521.976 275.582C520.255 277.841 513.954 282.358 509.374 282.358H507.757C507.166 283.38 507.757 286.128 509.537 286.609C511.583 286.72 513.577 286.609 516.481 284.78C519.82 282.788 523.912 278.003 526.069 277.789C526.933 277.789 527.199 278.648 527.147 279.188C526.985 281.825 522.412 286.342 517.403 289.09C514.175 290.867 510.836 291.134 508.413 291.134C506.471 291.075 502.158 287.794 502.593 283.491ZM518.8 272.028C519.826 270.791 520.632 268.258 519.449 267.184C517.293 266.488 513.525 269.014 511.966 271.383C510.622 273.323 509.056 275.738 508.679 278.108H508.731C512.389 277.626 517.397 274.397 518.8 272.028Z" fill="#00C2FF"/>
<path d="M533.663 282.736C535.222 279.559 538.132 274.716 540.931 271.435L540.879 271.006C540.126 271.058 539.1 271.331 538.346 271.331C537.326 271.383 536.085 270.576 535.332 270.309C535.007 270.257 530.973 277.086 530.213 278.056C529.408 279.618 526.874 282.092 525.043 282.469C524.075 282.684 521.866 282.684 521.866 281.232C523.802 279.351 526.173 275.855 528.005 272.783C528.381 272.086 531.292 267.939 531.233 267.132C531.181 266.592 530.532 266.221 530.48 265.414C530.317 262.829 532.097 260.408 533.39 258.852C534.254 257.83 536.352 256.86 537.911 256.808C539.255 256.808 541.25 257.504 541.302 258.748C541.412 260.414 540.061 262.999 538.931 264.561L538.067 265.798C538.333 265.961 539.359 266.768 539.788 266.768C541.672 266.716 543.88 265.798 545.063 264.457H545.011C545.875 263.272 546.518 263.005 547.973 262.953C549.753 262.953 550.448 264.242 550.506 265.049C550.506 265.212 550.292 265.804 550.019 266.234L549.805 266.716L545.069 272.9C544.907 273.115 544.316 273.974 543.991 274.247V274.195C542.646 275.81 540.814 279.039 539.684 281.297L538.554 283.608C538.015 284.793 538.067 285.49 538.392 285.919C539.307 286.993 542.107 285.06 545.017 282.313C547.174 280.269 549.597 276.5 550.35 275.966C550.941 276.077 552.507 275.803 552.988 276.291L553.202 276.617C552.448 281.564 548.57 285.652 544.588 288.51C542.055 290.339 539.093 291.147 536.027 290.932C534.468 290.665 532.799 288.185 532.799 287.918C532.799 285.535 533.286 285.32 533.663 282.736Z" fill="#00C2FF"/>
<path d="M563.011 282.951H562.744C561.991 283.706 559.353 286.017 558.652 286.772C556.872 288.438 554.722 289.838 551.006 289.89H550.519C550.357 289.838 548.902 289.083 548.635 289.031C547.934 288.705 546.641 286.342 546.589 284.832C547.018 274.768 556.93 264.444 565.596 264.333C566.135 264.333 567.103 264.118 567.642 264.6C567.856 264.867 568.668 265.244 568.824 265.518C570.279 263.148 570.546 262.185 572.326 259.008L576.041 252.713C576.795 251.424 577.659 249.862 578.302 248.729C579.003 247.33 580.023 245.826 580.835 244.374C581.101 243.834 581.64 243.619 582.017 242.975C582.881 241.523 583.739 240.39 585.843 240.338C587.513 240.338 588.052 241.842 588.156 243.404C588.266 245.559 585.57 247.225 584.388 248.892C581.855 252.498 577.659 260.349 575.34 264.066C573.027 267.835 571.033 271.546 569.467 275.523C569.357 275.849 567.421 278.641 567.369 279.019C567.369 280.204 566.401 284.454 568.499 284.617C570.221 284.617 571.624 282.462 573.021 281.551C574.151 280.692 577.061 277.248 578.62 277.248C579.861 277.196 579.322 277.945 579.373 279.24C578.672 282.417 571.137 290.268 567.207 289.89C566.18 289.89 564.673 289.194 563.868 288.438C563.173 287.306 562.471 285.424 563.011 282.951ZM554.124 284.513C555.742 283.654 558.645 281.121 559.399 280.477C560.64 279.188 563.92 275.315 564.57 274.13C565.057 273.271 566.025 271.546 566.726 270.738C566.564 270.524 565.271 269.235 565.057 269.235C559.782 269.345 552.513 277.307 551.383 283.439C551.325 284.454 553.156 285.424 554.124 284.513Z" fill="#00C2FF"/>
<path d="M603.823 286.069C602.316 287.358 598.438 290.372 595.152 290.372C593.053 290.372 590.682 287.039 590.682 285.477C590.682 284.995 590.793 283.758 590.845 283.537C590.306 284.018 589.604 284.721 589.442 284.884C589.39 284.936 588.955 285.366 588.955 285.477C586.265 287.787 584.219 290.105 579.64 290.105C576.301 290.105 574.579 286.394 574.683 282.463C574.794 278.108 577.86 272.887 581.309 269.28C584.161 266.318 588.74 264.274 593.261 264.274C594.554 264.274 596.171 264.704 596.814 265.407C596.814 265.785 597.834 266.696 597.893 267.126C598.809 265.349 600.264 265.407 600.692 265.348C601.823 265.401 602.148 267.393 602.148 268.2C602.148 269.437 599.51 273.421 599.4 273.635C599.133 274.176 597.997 275.627 597.73 275.894C596.386 277.776 595.197 279.982 595.197 282.189C595.197 282.996 595.574 284.773 596.165 284.988C598.263 285.47 601.55 282.567 602.303 281.707C603.271 280.633 605.909 277.457 606.773 276.597C607.097 276.597 607.526 277.19 608.065 277.138H608.117C608.228 277.352 608.228 277.619 608.28 277.834C608.507 280.855 605.655 283.973 603.823 286.069ZM594.671 270.146C594.671 269.554 593.917 268.369 593.216 268.369C590.468 268.369 586.915 270.413 584.869 272.783C582.069 276.011 579.912 279.077 579.912 282.144C579.912 283.543 580.341 284.565 581.53 284.884C583.842 284.559 586.109 281.766 587.779 280.314C589.02 279.24 592.358 274.989 594.405 272.08C594.56 271.487 594.671 270.843 594.671 270.146Z" fill="#00C2FF"/>
<path d="M619.978 282.951H619.712C618.958 283.706 616.321 286.017 615.62 286.772C613.84 288.438 611.69 289.838 607.974 289.89H607.487C607.324 289.838 605.869 289.083 605.603 289.031C604.901 288.705 603.609 286.342 603.557 284.832C603.986 274.768 613.898 264.444 622.563 264.333C623.103 264.333 624.071 264.118 624.61 264.6C624.824 264.867 625.636 265.244 625.792 265.518C627.247 263.148 627.513 262.185 629.293 259.008L633.009 252.713C633.762 251.424 634.626 249.862 635.269 248.729C635.971 247.33 636.991 245.826 637.803 244.374C638.069 243.834 638.608 243.619 638.985 242.975C639.849 241.523 640.706 240.39 642.811 240.338C644.48 240.338 645.02 241.842 645.123 243.404C645.234 245.559 642.538 247.225 641.356 248.892C638.823 252.498 634.626 260.349 632.307 264.066C629.995 267.835 628.001 271.546 626.435 275.523C626.325 275.849 624.389 278.641 624.337 279.019C624.337 280.204 623.369 284.454 625.467 284.617C627.189 284.617 628.592 282.462 629.988 281.551C631.118 280.692 634.029 277.248 635.588 277.248C636.828 277.196 636.289 277.945 636.341 279.24C635.64 282.417 628.104 290.268 624.175 289.89C623.148 289.89 621.641 289.194 620.836 288.438C620.141 287.306 619.439 285.424 619.978 282.951ZM611.092 284.513C612.709 283.654 615.613 281.121 616.367 280.477C617.607 279.188 620.888 275.315 621.537 274.13C622.024 273.271 622.992 271.546 623.694 270.738C623.531 270.524 622.239 269.235 622.024 269.235C616.75 269.345 609.481 277.307 608.351 283.439C608.292 284.454 610.124 285.424 611.092 284.513Z" fill="#00C2FF"/>
<path d="M632.041 283.491C632.58 276.715 634.412 272.034 639.797 266.325C642.545 263.578 646.962 262.022 651.048 262.126C654.01 262.178 654.926 266.481 654.653 268.154C654.276 271.058 653.36 273.102 651.425 275.582C649.703 277.841 643.402 282.358 638.823 282.358H637.205C636.614 283.38 637.205 286.128 638.985 286.609C641.031 286.72 643.026 286.609 645.929 284.78C649.268 282.788 653.36 278.003 655.517 277.789C656.381 277.789 656.647 278.648 656.595 279.188C656.433 281.825 651.86 286.342 646.852 289.09C643.623 290.867 640.284 291.134 637.861 291.134C635.919 291.075 631.612 287.794 632.041 283.491ZM648.248 272.028C649.274 270.791 650.08 268.258 648.898 267.184C646.741 266.488 642.974 269.014 641.415 271.383C640.07 273.323 638.504 275.738 638.128 278.108H638.18C641.843 277.626 646.845 274.397 648.248 272.028Z" fill="#00C2FF"/>
</g>
<defs>
<clipPath id="clip0_230_154">
<rect width="776.988" height="314.987" fill="white" transform="translate(0.00582886)"/>
</clipPath>
</defs>
</svg>
