<svg width="775" height="365" viewBox="0 0 775 365" fill="none" xmlns="http://www.w3.org/2000/svg">
<g clip-path="url(#clip0_219_1206)">
<path d="M0 167.088H59.0898C94.5447 167.088 109.8 177.465 109.8 200.174C109.8 215.742 102.924 225.258 90.0339 230.449V230.88C108.296 234.558 114.316 243.637 114.316 261.155C114.316 282.781 100.564 296.836 65.1095 296.836H0V167.094V167.088ZM38.6762 199.522V217.902H58.0142C67.6833 217.902 71.552 215.306 71.552 208.386C71.552 202.118 67.8973 199.522 58.0142 199.522H38.6762ZM38.6762 246.012V264.391H62.7391C71.1185 264.391 74.9872 260.934 74.9872 255.306C74.9872 249.038 72.4081 246.006 62.525 246.006H38.6762V246.012Z" fill="white"/>
<path d="M156.85 296.83H120.325V167.088H182.208L194.242 210.551C196.607 218.768 200.043 234.988 203.05 251.633H203.478C206.485 234.767 209.926 218.117 212.505 208.817L223.677 167.083H279.974V296.825H241.298V249.253C241.298 232.818 242.159 214.439 242.802 198.44H242.373C238.077 216.604 232.918 237.794 226.69 260.067L216.379 296.825H181.785L171.902 258.984C165.888 235.414 161.158 215.952 156.861 198.44H156.433C156.861 214.439 156.861 232.823 156.861 249.253V296.825L156.85 296.83Z" fill="white"/>
<path d="M285.978 231.526C285.978 191.956 312.192 163.846 353.014 163.846C393.835 163.846 420.049 191.956 420.049 231.526C420.049 271.095 395.767 300.072 353.014 300.072C310.26 300.072 285.978 271.095 285.978 231.526ZM381.593 231.095C381.593 213.798 372.566 198.661 353.014 198.661C333.461 198.661 324.435 213.798 324.435 231.095C324.435 252.501 333.242 265.479 353.014 265.479C372.785 265.479 381.593 252.506 381.593 231.095Z" fill="white"/>
<path d="M506.429 238.446V167.088H545.105V244.283C545.105 278.882 524.049 299.857 485.587 299.857C447.125 299.857 426.069 278.882 426.069 244.283V167.088H464.745V238.446C464.745 251.855 469.256 263.099 485.587 263.099C501.918 263.099 506.429 251.855 506.429 238.446Z" fill="white"/>
<path d="M549.824 256.825L587.639 249.038C590.432 261.149 600.743 266.986 612.563 266.986C621.371 266.986 626.957 264.606 626.957 259.2C626.957 253.793 621.585 250.551 600.101 247.525C564.004 242.549 553.046 226.55 553.046 205.144C553.046 179.194 570.88 163.841 607.405 163.841C643.93 163.841 660.475 182.22 664.558 204.924L626.31 212.926C623.089 201.035 617.502 196.06 605.254 196.06C596.013 196.06 592.15 199.517 592.15 204.493C592.15 208.817 593.867 212.495 619.439 216.168C656.826 221.574 666.495 239.086 666.495 257.902C666.495 283.852 649.522 300.067 609.77 300.067C565.294 300.067 552.618 278.44 549.824 256.819V256.825Z" fill="white"/>
<path d="M672.295 167.088H775V203.846H710.971V216.819H770.703V246.442H710.971V260.067H775V296.825H672.295V167.083V167.088Z" fill="white"/>
<path d="M83.7499 334.348C83.3681 334.348 83.3681 334.1 83.3681 334.1C82.4792 334.978 79.9318 338.231 79.0429 339.103C77.1339 341.354 71.9197 348.737 70.7743 350.487C70.7743 350.487 70.5178 351.112 67.4633 356.745L67.5886 356.497C66.9502 357.245 63.5139 361.128 62.625 361.877C60.4594 363.503 59.0634 363.503 56.6413 363.503H54.0939C53.8374 363.255 51.9283 360.374 51.6778 359.001L51.5525 357.875C51.5525 354.871 54.0999 351.117 55.8777 349.119L73.8228 325.974C73.5663 325.727 73.1845 325.597 72.6774 325.35C67.5886 322.097 65.5542 316.216 65.1724 309.334C65.0471 306.33 65.8108 303.206 68.1016 300.578C70.2672 297.95 72.1763 295.699 79.8065 295.075C81.2085 294.574 88.5882 295.576 93.8023 297.703C94.9477 296.954 97.2386 293.448 97.6204 292.824C97.877 292.576 100.8 289.447 102.077 286.943C102.966 285.069 106.152 279.56 106.659 278.812C107.679 277.186 113.275 266.927 115.309 263.174C116.073 261.795 117.725 256.916 118.489 255.543C120.016 251.666 124.091 248.036 127.139 248.036C127.778 248.036 130.068 248.413 130.832 248.661C131.339 249.162 134.907 250.912 135.288 252.662V257.918L134.65 261.046C134.012 264.676 132.616 269.803 132.485 270.68C131.339 278.936 123.834 323.352 122.939 331.736C125.487 331.86 129.812 331.359 133.755 330.234C135.79 329.108 139.99 326.103 145.46 318.597L148.515 316.093L150.167 315.845C152.202 315.468 153.347 316.222 153.86 319.098C154.242 320.223 153.985 321.725 153.985 322.975L153.604 324.601C152.583 326.604 148.133 333.109 146.099 334.612C141.899 338.613 138.462 340.74 134.901 342.496C131.59 344.747 122.814 343.745 122.683 343.998C122.426 344.499 122.808 350.379 122.683 352.006C122.557 352.754 123.446 356.637 123.446 358.888C123.572 362.14 122.557 363.142 119.628 364.892C119.628 364.892 118.99 365.016 118.608 365.016C116.824 365.016 115.172 364.267 113.901 363.137C113.137 362.135 110.847 360.261 110.465 359.76C110.34 359.012 109.701 354.881 109.445 352.13C109.319 351.629 109.319 350.88 109.319 350.503L109.826 344.499L109.701 343.373C106.772 343.25 103.717 342.496 101.433 341.747L84.2511 334.493C83.9945 334.493 83.744 334.37 83.744 334.37L83.7499 334.348ZM81.4591 316.206L87.3115 308.074C87.3115 307.827 84.7641 306.949 83.3681 306.572L80.3136 306.82C77.3844 307.697 77.641 312.7 81.4591 316.2V316.206ZM92.0185 322.711C92.6569 323.589 96.9821 325.463 97.7457 326.087C99.78 327.213 102.584 328.839 108.562 330.465C107.16 326.712 103.598 319.582 100.8 316.701C100.544 316.2 98.6346 314.822 97.871 314.574L93.6711 320.078C93.2892 320.578 92.1438 322.329 92.0185 322.706V322.711ZM108.055 309.2L109.325 310.702C110.471 312.452 112.505 317.207 113.018 318.957L114.671 310.573C115.309 308.069 117.218 298.187 118.871 284.924L120.398 275.915C116.323 284.046 111.109 293.556 106.653 300.81C106.014 301.935 104.362 303.939 103.98 304.94C105 306.443 107.034 307.816 108.055 309.194V309.2Z" fill="#022859"/>
<path d="M161.371 351.236L159.587 352.361C155.513 354.241 151.826 355.867 147.119 355.867C139.99 355.991 135.539 349.486 135.157 343.605C134.901 338.102 138.85 326.841 142.155 320.207C144.703 314.203 155.387 295.813 160.351 295.813C163.531 295.689 165.696 297.816 165.822 301.068C165.947 302.194 165.565 303.195 165.058 304.321C160.983 311.203 155.644 319.335 153.86 322.339C151.444 326.594 146.606 334.849 146.862 340.229C146.862 340.977 145.973 344.23 148.515 344.23L150.424 343.853C156.151 342.35 160.601 336.093 164.801 330.342L165.308 329.34C166.961 327.213 170.654 321.957 171.674 320.083L181.601 303.696C183.003 301.192 185.676 297.067 189.237 295.689C194.076 295.565 195.603 298.064 195.853 302.571C195.979 304.946 193.437 308.198 191.528 311.456L184.912 321.591C183.003 324.596 181.732 327.224 180.456 331.101C179.185 335.603 177.145 341.736 179.31 344.865C181.094 346.739 190.508 341.99 194.964 337.735C197.894 334.984 202.344 329.604 205.906 329.48C209.086 329.356 209.849 331.106 209.849 333.357C209.849 333.858 209.724 334.86 209.593 335.237C205.267 345.248 192.029 355.005 179.304 356.508H179.561C178.797 356.632 178.033 356.632 177.526 356.632C173.452 356.632 167.599 354.004 166.71 347.121C165.69 347.498 162.003 350.498 161.365 351.252L161.371 351.236Z" fill="#022859"/>
<path d="M237.978 339.227H237.34C235.556 340.977 229.321 346.357 227.669 348.112C223.469 351.99 218.38 355.242 209.599 355.372H208.453C208.071 355.248 204.635 353.492 203.997 353.368C202.344 352.62 199.29 347.111 199.158 343.611C200.179 320.212 223.588 296.195 244.081 295.942C245.352 295.942 247.642 295.441 248.919 296.567C249.426 297.191 251.335 298.069 251.717 298.694C255.153 293.19 255.792 290.939 259.992 283.556L268.773 268.92C270.557 265.915 272.591 262.291 274.119 259.663C275.771 256.41 278.193 252.904 280.102 249.528C280.741 248.279 282.011 247.778 282.9 246.275C284.935 242.899 286.975 240.271 291.933 240.147C295.876 240.147 297.153 243.653 297.403 247.277C297.66 252.28 291.294 256.162 288.496 260.04C282.513 268.424 272.591 286.69 267.121 295.323C261.65 304.079 256.943 312.711 253.25 321.973C252.994 322.722 248.412 329.232 248.287 330.105C248.287 332.857 245.996 342.738 250.959 343.115C255.034 343.115 258.339 338.112 261.65 335.985C264.323 333.982 271.195 325.974 274.882 325.974C277.812 325.851 276.535 327.601 276.666 330.606C275.014 337.989 257.194 356.255 247.905 355.377C245.489 355.377 241.927 353.751 240.018 352C238.366 349.373 236.707 344.995 237.984 339.238L237.978 339.227ZM216.978 342.857C220.796 340.853 227.669 334.973 229.447 333.476C232.376 330.471 240.137 321.467 241.665 318.71C242.81 316.707 245.101 312.706 246.754 310.826C246.372 310.325 243.317 307.326 242.81 307.326C230.342 307.574 213.16 326.093 210.487 340.353C210.362 342.727 214.687 344.984 216.978 342.857Z" fill="#022859"/>
<path d="M266.351 346.857C266.351 336.599 271.822 322.334 277.293 313.454C279.709 308.322 281.492 306.695 283.145 303.443C284.29 301.192 288.997 296.06 292.565 296.06C295.238 296.06 296.383 299.065 296.383 303.443C296.383 304.945 296.127 306.448 295.363 307.32L290.143 314.951C284.923 322.581 280.472 330.966 278.82 339.598C276.911 344.477 282.638 346.48 285.054 345.726C293.454 344.1 297.779 336.593 300.708 332.716L306.304 323.96C307.957 322.581 309.102 321.332 312.031 321.332C314.961 321.332 314.829 323.836 314.448 326.335C312.538 338.597 294.725 357.988 283.396 357.988C276.272 357.988 266.345 355.861 266.345 346.852L266.351 346.857ZM306.31 252.274C313.183 252.15 317.89 257.778 317.89 264.913C317.89 268.79 313.69 274.17 309.615 274.17C298.799 274.17 296.765 265.914 295.619 262.533C297.272 258.531 299.563 252.398 306.31 252.274Z" fill="#022859"/>
<path d="M307.963 321.085C308.345 320.708 311.399 316.706 311.656 316.206C311.781 315.958 313.183 314.202 313.183 313.955L322.472 308.823C322.472 308.575 323.11 308.198 323.235 308.074C323.999 307.326 327.435 302.942 330.615 299.943C332.399 298.193 339.522 295.312 344.104 295.565C346.138 295.565 347.283 295.565 349.067 297.439C352.76 300.314 355.558 306.82 355.94 312.205C356.322 316.335 355.176 321.09 354.412 324.59C354.412 325.091 350.976 331.596 350.851 332.221C354.287 332.221 359.758 331.343 362.687 329.97C365.998 328.844 371.087 323.842 372.101 321.085C372.226 321.085 375.537 319.458 375.537 319.458C377.321 319.458 378.467 322.711 378.717 323.96C378.592 331.467 369.936 338.473 362.049 341.101C356.447 342.975 348.56 343.352 344.998 343.605C336.855 352.862 331.635 360.993 314.078 360.869H311.148C305.296 356.992 300.207 353.363 299.825 347.482C299.062 339.098 303.643 328.338 307.969 321.085H307.963ZM315.342 350.234C322.215 350.234 327.304 346.104 331.247 342.603C330.609 341.726 328.831 341.855 327.936 341.354C321.189 338.979 318.14 335.727 317.759 329.97C317.633 328.591 318.904 327.218 318.779 325.468V325.22C314.197 327.848 309.615 340.482 310.892 347.116C311.017 348.495 313.69 350.245 315.348 350.245L315.342 350.234ZM337.863 332.469C343.847 330.094 344.986 317.207 344.605 313.201C344.605 311.822 343.585 309.695 341.675 309.571C337.857 309.571 332.643 313.201 330.603 316.2C328.694 319.076 326.278 325.457 327.674 328.963C328.694 331.467 335.692 332.964 337.851 332.463L337.863 332.469Z" fill="#022859"/>
<path d="M370.192 353.487C370.699 351.736 372.101 346.728 371.976 346.104C373.503 337.595 375.156 328.963 375.537 320.078C375.794 319.329 375.794 312.194 375.794 311.445C376.301 309.07 376.432 296.055 381.646 295.931C384.957 295.807 387.117 298.058 387.624 301.311C387.881 303.19 387.117 305.188 386.986 307.191C386.986 315.823 384.438 328.462 383.424 337.843V338.721L384.695 337.719C388.638 334.219 392.075 330.212 395.636 326.583C398.434 323.578 401.62 321.079 404.161 318.327C406.327 316.076 413.575 307.067 414.852 305.317C416.761 303.066 417.399 300.061 421.218 299.937C425.674 299.937 426.438 304.315 426.813 307.444C427.321 311.698 424.648 314.951 425.161 319.205C425.161 319.329 428.979 322.582 431.652 322.582C433.304 322.705 438.906 319.706 438.65 319.329L444.12 317.579C447.049 317.579 447.813 319.706 448.195 321.833C448.32 322.835 448.577 324.208 447.813 324.709C442.211 330.088 437.635 332.964 430.25 334.219C429.993 334.219 424.904 333.842 424.397 333.718C419.434 331.968 414.345 325.586 412.692 324.709L403.529 334.219C401.495 335.468 401.495 337.347 398.691 338.974L387.368 351.86L386.604 353.11L379.606 362.49C379.481 363.115 377.315 363.239 376.426 363.239H375.788C372.352 360.988 370.568 359.486 370.061 355.856C369.804 353.853 369.679 355.479 370.186 353.476L370.192 353.487Z" fill="#022859"/>
<path d="M433.686 346.857C433.686 336.599 439.157 322.334 444.627 313.454C447.043 308.322 448.827 306.695 450.48 303.443C451.625 301.192 456.332 296.06 459.9 296.06C462.572 296.06 463.718 299.065 463.718 303.443C463.718 304.945 463.461 306.448 462.698 307.32L457.478 314.951C452.258 322.581 447.807 330.966 446.155 339.598C444.246 344.477 449.973 346.48 452.389 345.726C460.789 344.1 465.114 336.593 468.043 332.716L473.639 323.96C475.292 322.581 476.437 321.332 479.366 321.332C482.295 321.332 482.164 323.836 481.782 326.335C479.873 338.597 462.059 357.988 450.73 357.988C443.607 357.988 433.68 355.861 433.68 346.852L433.686 346.857ZM473.645 252.274C480.518 252.15 485.225 257.778 485.225 264.913C485.225 268.79 481.025 274.17 476.95 274.17C466.134 274.17 464.1 265.914 462.954 262.533C464.607 258.531 466.898 252.398 473.645 252.274Z" fill="#022859"/>
<path d="M490.952 335.597C493.499 335.097 499.984 335.35 502.024 335.097C502.788 331.467 501.517 318.457 500.372 318.457L497.699 310.201C495.79 311.952 486.119 324.714 482.94 328.845C480.905 331.472 477.976 333.847 476.067 333.723C472.756 333.476 470.083 331.096 471.104 328.968C472.887 325.339 476.192 322.711 478.358 319.588C481.794 314.585 487.903 306.825 494.138 297.191C495.026 294.687 494.776 287.81 500.503 287.681C504.321 287.304 509.028 289.307 509.285 293.061C509.541 296.561 505.848 298.688 505.974 301.946C509.028 311.704 513.735 318.834 513.992 327.719C514.117 331.096 513.866 332.851 513.735 333.847L516.283 333.099C522.266 331.349 526.21 328.468 532.7 319.959C533.082 319.458 534.228 319.211 533.846 319.211C533.082 319.211 538.171 318.462 538.428 321.09C538.428 321.09 540.08 322.84 538.046 327.348C534.484 333.476 530.284 336.981 525.195 340.234C520.87 342.485 518.83 343.11 512.596 343.61C512.852 348.866 506.487 354.747 503.05 357.122C498.725 359.749 493.762 360.374 488.542 360.374C482.689 360.374 475.053 357.122 475.053 351.117C475.053 341.359 480.649 337.482 490.958 335.603L490.952 335.597ZM490.695 350.859C493.243 350.482 499.477 348.732 499.984 345.231C491.202 343.228 485.475 347.983 487.134 350.234C487.39 350.358 488.661 350.983 490.695 350.859Z" fill="#022859"/>
<path d="M548.086 351.236L546.303 352.361C542.228 354.241 538.541 355.867 533.834 355.867C526.705 355.991 522.254 349.486 521.873 343.605C521.616 338.102 525.565 326.841 528.87 320.207C531.418 314.203 542.103 295.813 547.066 295.813C550.246 295.689 552.412 297.816 552.537 301.068C552.662 302.194 552.28 303.195 551.773 304.321C547.699 311.203 542.359 319.335 540.575 322.339C538.159 326.594 533.321 334.849 533.577 340.229C533.577 340.977 532.689 344.23 535.23 344.23L537.139 343.853C542.866 342.35 547.317 336.093 551.517 330.342L552.024 329.34C553.676 327.213 557.369 321.957 558.389 320.083L568.316 303.696C569.718 301.192 572.391 297.067 575.953 295.689C580.791 295.565 582.318 298.064 582.569 302.571C582.694 304.946 580.153 308.198 578.243 311.456L571.627 321.591C569.718 324.596 568.448 327.224 567.171 331.101C565.9 335.603 563.86 341.736 566.025 344.865C567.809 346.739 577.223 341.99 581.68 337.735C584.609 334.984 589.059 329.604 592.621 329.48C595.801 329.356 596.564 331.106 596.564 333.357C596.564 333.858 596.439 334.86 596.308 335.237C591.983 345.248 578.745 355.005 566.02 356.508H566.276C565.512 356.632 564.749 356.632 564.242 356.632C560.167 356.632 554.315 354.004 553.426 347.121C552.406 347.498 548.719 350.498 548.08 351.252L548.086 351.236Z" fill="#022859"/>
<path d="M655.739 346.481C652.178 349.485 643.014 356.491 635.253 356.491C630.289 356.491 624.693 348.737 624.693 345.107C624.693 343.982 624.95 341.106 625.075 340.605C623.804 341.731 622.146 343.357 621.764 343.734C621.639 343.858 620.618 344.86 620.618 345.113C614.253 350.492 609.421 355.872 598.605 355.872C590.718 355.872 586.643 347.24 586.9 338.107C587.156 327.972 594.405 315.84 602.554 307.455C609.295 300.573 620.117 295.818 630.802 295.818C633.857 295.818 637.675 296.819 639.202 298.446C639.202 299.324 641.618 301.451 641.749 302.447C643.915 298.317 647.351 298.446 648.365 298.317C651.038 298.44 651.802 303.072 651.802 304.946C651.802 307.821 645.567 317.083 645.311 317.579C644.673 318.828 642 322.21 641.368 322.835C638.188 327.213 635.384 332.345 635.384 337.471C635.384 339.351 636.273 343.476 637.675 343.977C642.638 345.102 650.4 338.349 652.184 336.346C654.474 333.842 660.709 326.464 662.743 324.461C663.507 324.461 664.527 325.84 665.798 325.71H665.923C666.179 326.211 666.179 326.836 666.305 327.337C666.812 334.343 660.07 341.602 655.745 346.481H655.739ZM634.107 309.447C634.107 308.069 632.323 305.317 630.671 305.317C624.18 305.317 615.78 310.072 610.948 315.576C604.332 323.082 599.243 330.212 599.243 337.342C599.243 340.595 600.263 342.975 603.061 343.723C608.532 342.975 613.877 336.464 617.821 333.088C620.75 330.584 628.637 320.702 633.475 313.944C633.857 312.565 634.113 311.068 634.113 309.442L634.107 309.447Z" fill="#022859"/>
<path d="M660.828 329.092C666.555 312.953 676.608 285.802 683.731 272.043C689.327 259.657 700.912 239.14 711.979 239.14C715.29 239.14 719.108 243.518 720.504 245.521C722.413 250.023 722.288 252.527 722.157 258.16C721.775 268.295 713.124 285.559 708.411 292.818C701.795 303.077 688.688 315.463 677.998 319.216C677.491 319.964 672.014 332.35 670.111 335.98L669.729 336.857C668.965 338.984 670.236 344.364 674.693 344.865C679.018 344.488 687.543 335.355 690.216 331.978C692.506 329.103 699.636 320.094 702.684 320.594C705.995 320.594 706.628 321.72 706.628 323.346C706.628 323.971 706.753 324.973 705.226 328.349C703.191 334.606 695.298 343.115 690.848 348.118C687.412 350.993 679.268 357.628 671.382 357.628C664.509 357.628 657.768 350.745 657.768 348.247C657.768 347.369 656.622 345.118 656.622 342.366C656.622 339.114 659.42 332.485 660.822 329.103L660.828 329.092ZM700.656 284.676C704.73 278.796 712.361 263.658 712.742 257.029C712.868 253.777 712.235 253.152 710.708 252.274H709.945C707.91 252.15 706.001 254.024 704.092 257.907C700.149 261.908 693.02 278.052 693.02 278.052C689.965 284.181 686.529 291.063 684.369 297.32C684.369 297.444 684.113 299.2 683.987 299.323C682.717 302.576 683.731 299.447 682.335 303.077C688.187 300.325 694.04 294.568 700.662 284.687L700.656 284.676Z" fill="#022859"/>
<path d="M500.955 0H264.558C252.681 0 243.053 9.68972 243.053 21.6426C243.053 33.5955 252.681 43.2852 264.558 43.2852H500.955C512.832 43.2852 522.46 33.5955 522.46 21.6426C522.46 9.68972 512.832 0 500.955 0Z" fill="#022859"/>
<path d="M282.377 12.2671H289.547C293.335 12.2671 295.294 14.0819 295.294 17.049C295.294 19.1761 294.395 20.7378 292.559 21.4217V21.4863C295.042 22.0464 296.316 23.6134 296.316 25.9882C296.316 28.7723 294.486 31.0179 290.387 31.0179H282.377V12.2671ZM284.116 13.8611V20.8294H289.456C291.88 20.8294 293.587 19.86 293.587 17.2375C293.587 15.1427 292.313 13.8611 289.675 13.8611H284.116ZM284.116 22.3587V29.4185H290.328C293.308 29.4185 294.582 27.8246 294.582 25.8859C294.582 23.7911 293.153 22.3533 290.141 22.3533H284.116V22.3587Z" fill="white"/>
<path d="M298.338 12.2671H310.447V13.9257H300.077V20.6139H309.329V22.2725H300.077V29.3647H310.479V31.0233H298.338V12.2671Z" fill="white"/>
<path d="M314.862 31.0179H313.155V12.2671H315.734L320.175 22.6118C320.796 24.1142 322.069 27.0814 322.845 29.1439H322.91C323.685 27.1137 324.836 24.2381 325.58 22.5795L330.053 12.2671H332.536V31.0179H330.797V20.7701C330.797 18.7399 330.861 15.7997 330.888 13.8341H330.856C330.048 15.9882 328.742 19.2408 327.72 21.6479L323.621 31.0233H321.973L317.906 21.5563C316.82 18.9607 315.67 16.0259 314.862 13.8395H314.798C314.862 15.8374 314.862 18.713 314.862 20.7755V31.0233V31.0179Z" fill="white"/>
<path d="M344.078 20.7379V22.4234H334.703V20.7379H344.078Z" fill="white"/>
<path d="M352.125 31.0179L344.174 12.2671H346.004L350.038 22.0141C351.002 24.3566 352.211 27.2968 352.928 29.2947H353.051C353.859 27.2322 355.036 24.3566 355.999 22.0141L360.007 12.2671H361.81L353.891 31.0179H352.12H352.125Z" fill="white"/>
<path d="M362.902 31.0179V12.2671H364.641V31.0179H362.902Z" fill="white"/>
<path d="M373.427 20.3932C371.999 18.3307 370.602 16.0797 369.484 14.2057H369.419C369.451 16.1766 369.484 18.7346 369.484 20.8617V31.0179H367.777V12.2671H370.045L376.44 21.6748C378.179 24.2381 379.698 26.6129 380.849 28.4869H380.94C380.908 26.6722 380.876 24.3943 380.876 22.4233V12.2671H382.583V31.0179H380.688L373.422 20.3932H373.427Z" fill="white"/>
<path d="M385.756 12.2671H392.524C398.705 12.2671 401.996 15.9882 401.996 21.5779C401.996 27.1676 398.608 31.0125 392.68 31.0125H385.756V12.2671ZM387.495 13.7964V29.4832H392.524C397.897 29.4832 400.257 26.3921 400.257 21.5779C400.257 16.7636 397.677 13.7964 392.278 13.7964H387.495Z" fill="white"/>
<path d="M403.114 21.6102C403.114 16.0798 406.779 11.9225 412.521 11.9225C418.262 11.9225 421.928 16.0798 421.928 21.6102C421.928 27.1407 418.294 31.3626 412.521 31.3626C406.747 31.3626 403.114 27.1461 403.114 21.6102ZM420.194 21.6102C420.194 17.0168 417.369 13.5811 412.526 13.5811C407.684 13.5811 404.826 17.0168 404.826 21.6102C404.826 26.2037 407.619 29.704 412.526 29.704C417.433 29.704 420.194 26.236 420.194 21.6102Z" fill="white"/>
<path d="M422.586 24.3943L424.261 24.082C424.817 27.55 426.899 29.7363 430.751 29.7363C434.106 29.7363 435.749 28.2985 435.749 26.1714C435.749 24.0443 434.352 22.9511 430.5 22.2941C425.406 21.3895 423.731 19.5154 423.731 16.8875C423.731 13.9527 426.026 11.9171 429.911 11.9171C434.288 11.9171 436.123 14.572 436.931 18.1369L435.224 18.4492C434.572 15.3259 433.239 13.5111 429.852 13.5111C427.15 13.5111 425.475 14.8251 425.475 16.8229C425.475 18.6646 426.529 19.887 430.971 20.7002C436.091 21.6372 437.493 23.5112 437.493 26.0745C437.493 29.1709 435.321 31.3572 430.692 31.3572C425.727 31.2926 423.083 28.4816 422.586 24.3889V24.3943Z" fill="white"/>
<path d="M455.595 24.7981H446.809L444.262 31.0179H442.4L450.351 12.2671H452.123L460.042 31.0179H458.18L455.601 24.7981H455.595ZM447.462 23.2688H454.975L454.135 21.2709C453.171 18.9284 451.994 15.9882 451.245 13.9903H451.154C450.41 16.0528 449.26 18.9284 448.265 21.2709L447.457 23.2688H447.462Z" fill="white"/>
<path d="M459.041 21.6102C459.041 16.0798 462.707 11.9225 468.448 11.9225C474.19 11.9225 477.855 16.0798 477.855 21.6102C477.855 27.1407 474.222 31.3626 468.448 31.3626C462.675 31.3626 459.041 27.1461 459.041 21.6102ZM476.121 21.6102C476.121 17.0168 473.296 13.5811 468.453 13.5811C463.611 13.5811 460.754 17.0168 460.754 21.6102C460.754 26.2037 463.547 29.704 468.453 29.704C473.36 29.704 476.121 26.236 476.121 21.6102Z" fill="white"/>
<path d="M483.142 16.516V19.1116H480.595V16.516H483.142ZM483.142 28.4224V31.018H480.595V28.4224H483.142Z" fill="white"/>
<path d="M126.441 112.144V62.7684H153.201V116.183C153.201 140.125 138.631 154.638 112.021 154.638C85.4108 154.638 70.8403 140.125 70.8403 116.183V62.7684H97.6V112.144C97.6 121.423 100.72 129.199 112.021 129.199C123.322 129.199 126.441 121.417 126.441 112.144Z" fill="white"/>
<path d="M197.356 123.367C194.531 116.038 188.731 101.223 184.718 89.6992H184.274C184.718 101.821 185.017 115.881 185.017 123.814V152.543H159.745V62.7684H200.631L209.401 86.7105C212.821 95.9889 217.283 108.407 220.403 118.73H220.847C220.547 108.407 220.403 98.9776 220.403 91.6486V62.7738H245.675V152.548H208.802L197.356 123.372V123.367Z" fill="white"/>
<path d="M252.214 152.543V62.7684H278.973V152.543H252.214Z" fill="white"/>
<path d="M311.833 152.543L278.829 62.7684H307.52L322.685 109.452C324.467 114.987 326.254 120.523 327.886 125.908H328.186C329.967 120.523 331.605 114.987 333.536 109.452L349.145 62.7684H376.648L343.494 152.543H311.828H311.833Z" fill="white"/>
<path d="M376.504 62.7684H447.569V88.2021H403.264V97.179H444.594V117.68H403.264V127.104H447.569V152.538H376.504V62.7684Z" fill="white"/>
<path d="M489.049 122.467H480.573V152.543H453.813V62.7684H494.849C517.746 62.7684 530.529 72.4939 530.529 93.291C530.529 106.307 524.729 114.686 514.92 118.875L536.629 152.241V152.543H505.556L489.054 122.467H489.049ZM480.573 86.7051V101.519H494.55C501.388 101.519 504.064 99.123 504.064 94.1903C504.064 88.8052 500.644 86.7105 494.1 86.7105H480.573V86.7051Z" fill="white"/>
<path d="M532.461 124.858L558.627 119.473C560.558 127.852 567.696 131.891 575.872 131.891C581.967 131.891 585.836 130.243 585.836 126.506C585.836 122.769 582.117 120.523 567.252 118.428C542.274 114.987 534.692 103.916 534.692 89.1014C534.692 71.1476 547.031 60.5228 572.303 60.5228C597.576 60.5228 609.026 73.2424 611.852 88.9506L585.386 94.4865C583.155 86.2581 579.292 82.817 570.816 82.817C564.422 82.817 561.746 85.2134 561.746 88.6544C561.746 91.6485 562.934 94.1903 580.629 96.732C606.501 100.475 613.189 112.591 613.189 125.607C613.189 143.561 601.444 154.783 573.941 154.783C543.168 154.783 534.392 139.818 532.461 124.858Z" fill="white"/>
<path d="M613.339 107.357C613.339 79.9737 631.479 60.5228 659.726 60.5228C687.973 60.5228 706.113 79.9737 706.113 107.357C706.113 134.74 689.311 154.788 659.726 154.788C630.141 154.788 613.339 134.74 613.339 107.357ZM679.497 107.055C679.497 95.0842 673.253 84.6102 659.726 84.6102C646.199 84.6102 639.954 95.0842 639.954 107.055C639.954 121.87 646.049 130.846 659.726 130.846C673.403 130.846 679.497 121.87 679.497 107.055Z" fill="white"/>
</g>
<defs>
<clipPath id="clip0_219_1206">
<rect width="775" height="365" fill="white"/>
</clipPath>
</defs>
</svg>
