<svg width="20" height="17" viewBox="0 0 20 17" fill="none" xmlns="http://www.w3.org/2000/svg">
<path d="M19.3333 2.61083C18.6228 2.92661 17.8576 3.13928 17.0552 3.23594C17.8753 2.74456 18.502 1.968 18.8001 1.04161C18.0332 1.49594 17.1841 1.82622 16.2803 2.00344C15.5585 1.23172 14.5258 0.75 13.3867 0.75C10.8251 0.75 8.94328 3.13928 9.52167 5.62039C6.22694 5.45444 3.30278 3.87556 1.34689 1.47661C0.307722 3.2585 0.808778 5.59139 2.57456 6.77233C1.92528 6.75139 1.31467 6.57256 0.779778 6.27611C0.736278 8.11278 2.05417 9.83183 3.96172 10.2153C3.40428 10.3667 2.79206 10.4022 2.17017 10.2829C2.67444 11.8586 4.14217 13.0041 5.87572 13.0363C4.205 14.3446 2.10572 14.9294 0 14.6813C1.75611 15.8074 3.83928 16.4632 6.07872 16.4632C13.4447 16.4632 17.6046 10.2427 17.3533 4.66339C18.1298 4.10594 18.8017 3.40672 19.3333 2.61083Z" fill="white"/>
</svg>
